<svg width="24" height="25" viewBox="0 0 24 25" fill="none" xmlns="http://www.w3.org/2000/svg">
<path fill-rule="evenodd" clip-rule="evenodd" d="M11 9.5C11 8.948 11.448 8.5 12 8.5C12.552 8.5 13 8.948 13 9.5V13.5C13 14.052 12.552 14.5 12 14.5C11.448 14.5 11 14.052 11 13.5V9.5ZM11 16.5C11 15.948 11.448 15.5 12 15.5C12.552 15.5 13 15.948 13 16.5C13 17.052 12.552 17.5 12 17.5C11.448 17.5 11 17.052 11 16.5ZM20.8647 18.853C20.6357 19.258 20.1897 19.5 19.6717 19.5H4.3277C3.8097 19.5 3.3637 19.258 3.1357 18.853C3.0277 18.663 2.8857 18.276 3.1527 17.836L10.8237 5.118C11.2907 4.344 12.7087 4.344 13.1757 5.118L20.8477 17.836C21.1137 18.276 20.9727 18.663 20.8647 18.853ZM22.5607 16.803L14.8887 4.084C14.2897 3.092 13.2097 2.5 11.9997 2.5C10.7897 2.5 9.7097 3.092 9.1117 4.084L1.4397 16.803C0.870699 17.746 0.853699 18.88 1.3937 19.836C1.9727 20.863 3.0977 21.5 4.3277 21.5H19.6717C20.9027 21.5 22.0267 20.863 22.6067 19.836C23.1467 18.88 23.1297 17.746 22.5607 16.803Z" fill="url(#paint0_linear_4361_1008)"/>
<defs>
<linearGradient id="paint0_linear_4361_1008" x1="1.00049" y1="12" x2="22.9999" y2="12" gradientUnits="userSpaceOnUse">
<stop stop-color="#E35205"/>
<stop offset="1" stop-color="#F98E20"/>
</linearGradient>
</defs>
</svg>
