<svg width="24" height="25" viewBox="0 0 24 25" fill="none" xmlns="http://www.w3.org/2000/svg">
<path fill-rule="evenodd" clip-rule="evenodd" d="M11.219 12.5994C11.2162 10.7686 10.9177 9.51185 10.0842 7.82202C9.60686 6.85445 9.37103 6.59905 8.89318 6.53352C8.74746 6.51349 8.51529 6.54811 8.37715 6.6103C8.06866 6.74937 7.80317 7.07559 7.73099 7.40437C7.6869 7.60464 7.76274 7.82626 8.12876 8.5674C8.80651 9.94006 9.14581 11.2872 9.14764 12.6265C9.14581 13.9658 8.80651 15.3129 8.12876 16.6856C7.76274 17.4267 7.6869 17.6483 7.73099 17.8486C7.80317 18.1774 8.06866 18.5036 8.37715 18.6427C8.51529 18.7048 8.74746 18.7394 8.89318 18.7194C9.37103 18.6539 9.60686 18.3985 10.0842 17.4309C10.9177 15.7411 11.2162 14.4844 11.219 12.6536C11.219 12.6444 11.2187 12.6356 11.2187 12.6265C11.2187 12.6173 11.219 12.6085 11.219 12.5994Z" fill="url(#paint0_linear_4361_1168)"/>
<path fill-rule="evenodd" clip-rule="evenodd" d="M20 12.6129C20 12.6083 20.0001 12.6038 20.0001 12.5993H19.9998C19.9902 11.5959 19.9295 10.5532 19.823 9.84737C19.5004 7.70878 18.8469 5.65419 17.8932 3.78145C17.6524 3.30868 17.3647 2.83659 17.2541 2.73261C16.9662 2.46225 16.3645 2.42015 16.0055 2.64542C15.7437 2.8097 15.502 3.2286 15.502 3.51758C15.502 3.59577 15.736 4.13707 16.0222 4.71999C17.353 7.4312 17.8899 9.69407 17.8916 12.5993C17.8916 12.6038 17.8917 12.6083 17.8917 12.6129C17.8917 12.6174 17.8916 12.6219 17.8916 12.6265C17.8899 15.5317 17.353 17.7945 16.0222 20.5058C15.736 21.0887 15.502 21.63 15.502 21.7082C15.502 21.9971 15.7437 22.416 16.0055 22.5803C16.3645 22.8056 16.9662 22.7635 17.2541 22.4931C17.3647 22.3892 17.6524 21.9171 17.8932 21.4443C18.8469 19.5716 19.5004 17.517 19.823 15.3784C19.9295 14.6725 19.9902 13.6299 19.9998 12.6265H20.0001C20.0001 12.6219 20 12.6174 20 12.6129Z" fill="url(#paint1_linear_4361_1168)"/>
<path fill-rule="evenodd" clip-rule="evenodd" d="M14.8877 7.95589C14.5436 6.90155 13.6521 5.03975 13.3654 4.77682C12.9519 4.39736 12.1646 4.4698 11.8492 4.91621C11.5175 5.38574 11.5439 5.5665 12.1145 6.73266C12.9648 8.47082 13.3025 9.65879 13.4814 11.5424C13.5156 11.903 13.5335 12.2647 13.5351 12.6266C13.5438 14.5656 13.0867 16.5124 12.1867 18.3478C11.9345 18.8622 11.6994 19.3741 11.6645 19.4852C11.5201 19.9442 11.8802 20.5566 12.3795 20.7019C13.1208 20.9177 13.6457 20.3748 14.3933 18.6189C15.2153 16.6881 15.6294 14.6565 15.6309 12.6266C15.632 11.0527 15.3851 9.47986 14.8877 7.95589Z" fill="url(#paint2_linear_4361_1168)"/>
<path fill-rule="evenodd" clip-rule="evenodd" d="M6.13927 9.28726C5.68365 8.58205 5.17536 8.33282 4.64228 8.55349C4.39792 8.6547 4.11888 8.98724 4.03593 9.27627C3.9434 9.59941 4.01914 9.85575 4.38605 10.459C4.85568 11.2313 5.07222 11.976 5.07222 12.6389C5.07222 13.3018 4.85568 14.0465 4.38605 14.8188C4.01914 15.422 3.9434 15.6784 4.03593 16.0015C4.11888 16.2906 4.39792 16.6231 4.64228 16.7243C5.17536 16.9449 5.68365 16.6957 6.13927 15.9905C6.78605 14.9899 7.10866 13.8153 7.10803 12.6389C7.10866 11.4624 6.78605 10.2879 6.13927 9.28726Z" fill="url(#paint3_linear_4361_1168)"/>
<defs>
<linearGradient id="paint0_linear_4361_1168" x1="7.71973" y1="12.6265" x2="11.219" y2="12.6265" gradientUnits="userSpaceOnUse">
<stop stop-color="#E35205"/>
<stop offset="1" stop-color="#F98E20"/>
</linearGradient>
<linearGradient id="paint1_linear_4361_1168" x1="15.502" y1="12.6129" x2="20.0001" y2="12.6129" gradientUnits="userSpaceOnUse">
<stop stop-color="#E35205"/>
<stop offset="1" stop-color="#F98E20"/>
</linearGradient>
<linearGradient id="paint2_linear_4361_1168" x1="11.6323" y1="12.6392" x2="15.6309" y2="12.6392" gradientUnits="userSpaceOnUse">
<stop stop-color="#E35205"/>
<stop offset="1" stop-color="#F98E20"/>
</linearGradient>
<linearGradient id="paint3_linear_4361_1168" x1="4" y1="12.6389" x2="7.10804" y2="12.6389" gradientUnits="userSpaceOnUse">
<stop stop-color="#E35205"/>
<stop offset="1" stop-color="#F98E20"/>
</linearGradient>
</defs>
</svg>
