<svg width="24" height="25" viewBox="0 0 24 25" fill="none" xmlns="http://www.w3.org/2000/svg">
<path fill-rule="evenodd" clip-rule="evenodd" d="M11.9998 1.42285C14.9586 1.42285 17.7402 2.57507 19.8324 4.66718C21.9245 6.75933 23.0767 9.54103 23.0767 12.4998V12.4999H23.0767V12.4999C23.0766 14.9187 22.3107 17.2169 20.8615 19.1462C20.7389 19.3095 20.5467 19.4055 20.3426 19.4055H3.65703C3.45293 19.4055 3.26069 19.3095 3.13811 19.1463C1.68889 17.217 0.922895 14.9188 0.922852 12.4999V12.4999V12.4998C0.922852 9.54107 2.07502 6.75946 4.16709 4.66726L4.16714 4.66722L4.16722 4.66718C6.25938 2.57502 9.04103 1.42285 11.9998 1.42285ZM3.98765 18.1075H20.012C21.0447 16.6365 21.641 14.939 21.7572 13.1489L21.0372 13.1488C20.6788 13.1488 20.3882 12.8582 20.3882 12.4997C20.3883 12.1413 20.6788 11.8507 21.0372 11.8507H21.0373L21.7566 11.8508C21.6111 9.6421 20.7294 7.63151 19.3547 6.06274L18.8491 6.56826C18.7224 6.69499 18.5563 6.75834 18.3902 6.75834C18.2241 6.75834 18.058 6.69495 17.9313 6.56821C17.6778 6.31474 17.6779 5.90377 17.9313 5.65034L18.4369 5.14491C16.8681 3.77016 14.8575 2.88847 12.6488 2.743V3.4623C12.6488 3.82075 12.3582 4.11134 11.9998 4.11134C11.6413 4.11134 11.3507 3.82075 11.3507 3.4623V2.743C9.14206 2.88847 7.13147 3.77016 5.5627 5.14487L6.06821 5.65034C6.32168 5.90381 6.32173 6.31474 6.06826 6.56821C5.94152 6.69495 5.77541 6.75834 5.6093 6.75834C5.44319 6.75834 5.27712 6.69499 5.15038 6.56826L4.64483 6.06274C3.27012 7.63151 2.38847 9.6421 2.243 11.8508L2.96222 11.8507C3.32066 11.8507 3.6113 12.1413 3.6113 12.4997C3.61134 12.8582 3.32075 13.1488 2.9623 13.1488L2.24235 13.1489C2.35848 14.939 2.95486 16.6366 3.98765 18.1075ZM16.1709 21.3555H7.82862C7.47018 21.3555 7.17958 21.6461 7.17958 22.0046C7.17958 22.363 7.47018 22.6536 7.82862 22.6536H16.1709C16.5294 22.6536 16.82 22.363 16.82 22.0046C16.82 21.6461 16.5294 21.3555 16.1709 21.3555ZM16.0683 8.43117C15.815 8.17765 15.404 8.17765 15.1505 8.43117L13.4187 10.1629C13.0048 9.91067 12.5189 9.76516 11.9997 9.76516C10.4918 9.76516 9.26512 10.9919 9.26512 12.4998C9.26512 14.0077 10.4919 15.2344 11.9997 15.2344C13.5076 15.2344 14.7343 14.0076 14.7343 12.4998C14.7343 11.9806 14.5888 11.4948 14.3366 11.0808L16.0683 9.34904C16.3218 9.09557 16.3218 8.68464 16.0683 8.43117ZM11.9998 13.9363C11.2076 13.9363 10.5632 13.2919 10.5632 12.4998C10.5632 11.7077 11.2077 11.0632 11.9998 11.0632C12.7919 11.0632 13.4363 11.7076 13.4363 12.4998C13.4363 13.2919 12.7919 13.9363 11.9998 13.9363Z" fill="url(#paint0_linear_4361_1347)"/>
<path d="M19.8324 4.66718L20.0091 4.4904L20.0091 4.4904L19.8324 4.66718ZM23.0767 12.4999V12.7499H23.3267V12.4999H23.0767ZM23.0767 12.4999V12.2499H22.8267V12.4999H23.0767ZM23.0767 12.4999L23.3267 12.4999V12.4999H23.0767ZM20.8615 19.1462L20.6616 18.9961L20.6616 18.9961L20.8615 19.1462ZM3.13811 19.1463L3.338 18.9961L3.33799 18.9961L3.13811 19.1463ZM0.922852 12.4999H0.672852V12.4999L0.922852 12.4999ZM4.16709 4.66726L3.9908 4.49L3.99031 4.49049L4.16709 4.66726ZM4.16714 4.66722L4.05509 4.44374L4.01926 4.4617L3.99085 4.48996L4.16714 4.66722ZM4.16722 4.66718L4.27927 4.89066L4.31541 4.87254L4.344 4.84396L4.16722 4.66718ZM20.012 18.1075V18.3575H20.1419L20.2166 18.2511L20.012 18.1075ZM3.98765 18.1075L3.78305 18.2511L3.85772 18.3575H3.98765V18.1075ZM21.7572 13.1489L22.0067 13.165L22.024 12.8989L21.7572 12.8989L21.7572 13.1489ZM21.0372 13.1488L21.0372 12.8988H21.0372V13.1488ZM20.3882 12.4997L20.1382 12.4997V12.4997L20.3882 12.4997ZM21.0373 11.8507L21.0373 11.6007H21.0373V11.8507ZM21.7566 11.8508L21.7565 12.1008L22.0236 12.1008L22.006 11.8343L21.7566 11.8508ZM19.3547 6.06274L19.5427 5.89797L19.3667 5.69717L19.1779 5.88595L19.3547 6.06274ZM18.8491 6.56826L18.6723 6.39146L18.6723 6.39151L18.8491 6.56826ZM17.9313 6.56821L17.7545 6.74497L17.7545 6.74499L17.9313 6.56821ZM17.9313 5.65034L17.7546 5.47354L17.7546 5.47355L17.9313 5.65034ZM18.4369 5.14491L18.6136 5.32171L18.8025 5.1329L18.6017 4.95689L18.4369 5.14491ZM12.6488 2.743L12.6652 2.49354L12.3988 2.47599V2.743H12.6488ZM11.3507 2.743H11.6007V2.47599L11.3343 2.49354L11.3507 2.743ZM5.5627 5.14487L5.39793 4.95685L5.1971 5.13284L5.38593 5.32166L5.5627 5.14487ZM6.06821 5.65034L6.24499 5.47357L6.24498 5.47356L6.06821 5.65034ZM5.15038 6.56826L5.32716 6.39148L5.32715 6.39147L5.15038 6.56826ZM4.64483 6.06274L4.8216 5.88596L4.63278 5.69716L4.4568 5.89798L4.64483 6.06274ZM2.243 11.8508L1.99354 11.8343L1.97599 12.1008L2.24301 12.1008L2.243 11.8508ZM2.96222 11.8507V11.6007H2.9622L2.96222 11.8507ZM3.6113 12.4997H3.3613V12.4998L3.6113 12.4997ZM2.9623 13.1488V12.8988H2.96229L2.9623 13.1488ZM2.24235 13.1489L2.24233 12.8989L1.9756 12.8989L1.99287 13.165L2.24235 13.1489ZM15.1505 8.43117L15.3273 8.60795L15.3273 8.60793L15.1505 8.43117ZM16.0683 8.43117L15.8915 8.6079L15.8916 8.60795L16.0683 8.43117ZM13.4187 10.1629L13.2886 10.3764L13.4565 10.4787L13.5955 10.3397L13.4187 10.1629ZM14.3366 11.0808L14.1598 10.904L14.0208 11.043L14.1231 11.2109L14.3366 11.0808ZM20.0091 4.4904C17.8701 2.35141 15.0249 1.17285 11.9998 1.17285V1.67285C14.8923 1.67285 17.6103 2.79873 19.6556 4.84396L20.0091 4.4904ZM23.3267 12.4998C23.3267 9.47472 22.1481 6.62944 20.0091 4.4904L19.6556 4.84395C21.7008 6.88922 22.8267 9.60733 22.8267 12.4998H23.3267ZM23.3267 12.4999V12.4998H22.8267V12.4999H23.3267ZM23.0767 12.7499H23.0767V12.2499H23.0767V12.7499ZM23.3267 12.4999V12.4999H22.8267V12.4999H23.3267ZM21.0614 19.2964C22.5432 17.3237 23.3266 14.9727 23.3267 12.4999L22.8267 12.4999C22.8266 14.8647 22.0782 17.1102 20.6616 18.9961L21.0614 19.2964ZM20.3426 19.6555C20.6254 19.6555 20.8916 19.5225 21.0614 19.2963L20.6616 18.9961C20.5863 19.0965 20.4681 19.1555 20.3426 19.1555V19.6555ZM3.65703 19.6555H20.3426V19.1555H3.65703V19.6555ZM2.93821 19.2964C3.10802 19.5225 3.37432 19.6555 3.65703 19.6555V19.1555C3.53154 19.1555 3.41335 19.0965 3.338 18.9961L2.93821 19.2964ZM0.672852 12.4999C0.672896 14.9728 1.45639 17.3238 2.93822 19.2964L3.33799 18.9961C1.92139 17.1103 1.17289 14.8648 1.17285 12.4999L0.672852 12.4999ZM0.672852 12.4999V12.4999H1.17285V12.4999H0.672852ZM0.672852 12.4998V12.4999H1.17285V12.4998H0.672852ZM3.99031 4.49049C1.85136 6.62957 0.672852 9.47476 0.672852 12.4998H1.17285C1.17285 9.60737 2.29869 6.88935 4.34387 4.84404L3.99031 4.49049ZM3.99085 4.48996L3.9908 4.49L4.34338 4.84453L4.34342 4.84448L3.99085 4.48996ZM4.05517 4.44369L4.05509 4.44374L4.27918 4.89071L4.27927 4.89066L4.05517 4.44369ZM11.9998 1.17285C8.97472 1.17285 6.12948 2.35136 3.99045 4.4904L4.344 4.84396C6.38927 2.79869 9.10733 1.67285 11.9998 1.67285V1.17285ZM20.012 17.8575H3.98765V18.3575H20.012V17.8575ZM21.5077 13.1327C21.3945 14.8771 20.8137 16.5305 19.8074 17.9638L20.2166 18.2511C21.2758 16.7425 21.8875 15.0009 22.0067 13.165L21.5077 13.1327ZM21.0372 13.3988L21.7572 13.3989L21.7572 12.8989L21.0372 12.8988L21.0372 13.3988ZM20.1382 12.4997C20.1381 12.9962 20.5407 13.3988 21.0372 13.3988V12.8988C20.8168 12.8988 20.6382 12.7201 20.6382 12.4998L20.1382 12.4997ZM21.0372 11.6007C20.5408 11.6007 20.1383 12.0032 20.1382 12.4997L20.6382 12.4998C20.6382 12.2794 20.8169 12.1007 21.0372 12.1007V11.6007ZM21.0373 11.6007H21.0372V12.1007H21.0373V11.6007ZM21.7566 11.6008L21.0373 11.6007L21.0373 12.1007L21.7565 12.1008L21.7566 11.6008ZM19.1667 6.22751C20.5065 7.75649 21.3654 9.71542 21.5071 11.8672L22.006 11.8343C21.8568 9.56878 20.9523 7.50653 19.5427 5.89797L19.1667 6.22751ZM19.0258 6.74505L19.5314 6.23953L19.1779 5.88595L18.6723 6.39146L19.0258 6.74505ZM18.3902 7.00834C18.6198 7.00834 18.8504 6.92055 19.0259 6.745L18.6723 6.39151C18.5944 6.46943 18.4927 6.50834 18.3902 6.50834V7.00834ZM17.7545 6.74499C17.93 6.92048 18.1605 7.00834 18.3902 7.00834V6.50834C18.2877 6.50834 18.186 6.46941 18.108 6.39144L17.7545 6.74499ZM17.7546 5.47355C17.4035 5.8246 17.4034 6.39386 17.7545 6.74497L18.108 6.39145C17.9522 6.23562 17.9523 5.98294 18.1081 5.82713L17.7546 5.47355ZM18.2601 4.96811L17.7546 5.47354L18.1081 5.82714L18.6136 5.32171L18.2601 4.96811ZM12.6324 2.99246C14.7842 3.13418 16.7431 3.99305 18.2721 5.33294L18.6017 4.95689C16.9931 3.54728 14.9308 2.64275 12.6652 2.49354L12.6324 2.99246ZM12.8988 3.4623V2.743H12.3988V3.4623H12.8988ZM11.9998 4.36134C12.4963 4.36134 12.8988 3.95882 12.8988 3.4623H12.3988C12.3988 3.68267 12.2201 3.86134 11.9998 3.86134V4.36134ZM11.1007 3.4623C11.1007 3.95882 11.5033 4.36134 11.9998 4.36134V3.86134C11.7794 3.86134 11.6007 3.68267 11.6007 3.4623H11.1007ZM11.1007 2.743V3.4623H11.6007V2.743H11.1007ZM5.72746 5.33289C7.25645 3.99305 9.21538 3.13418 11.3672 2.99246L11.3343 2.49354C9.06874 2.64275 7.00649 3.54728 5.39793 4.95685L5.72746 5.33289ZM6.24498 5.47356L5.73947 4.96809L5.38593 5.32166L5.89144 5.82713L6.24498 5.47356ZM6.24503 6.74499C6.59616 6.39386 6.59607 5.82465 6.24499 5.47357L5.89144 5.82712C6.0473 5.98298 6.0473 6.23562 5.89148 6.39144L6.24503 6.74499ZM5.6093 7.00834C5.83902 7.00834 6.06954 6.92048 6.24503 6.74499L5.89148 6.39144C5.8135 6.46942 5.7118 6.50834 5.6093 6.50834V7.00834ZM4.97361 6.74503C5.14912 6.92054 5.3796 7.00834 5.6093 7.00834V6.50834C5.50678 6.50834 5.40513 6.46944 5.32716 6.39148L4.97361 6.74503ZM4.46806 6.23953L4.97362 6.74504L5.32715 6.39147L4.8216 5.88596L4.46806 6.23953ZM2.49246 11.8672C2.63418 9.71542 3.49301 7.75649 4.83285 6.22751L4.4568 5.89798C3.04723 7.50653 2.14275 9.56878 1.99354 11.8343L2.49246 11.8672ZM2.9622 11.6007L2.24298 11.6008L2.24301 12.1008L2.96223 12.1007L2.9622 11.6007ZM3.8613 12.4997C3.8613 12.0032 3.45869 11.6007 2.96222 11.6007V12.1007C3.18263 12.1007 3.3613 12.2794 3.3613 12.4997H3.8613ZM2.9623 13.3988C3.45883 13.3988 3.86136 12.9962 3.8613 12.4997L3.3613 12.4998C3.36133 12.7201 3.18266 12.8988 2.9623 12.8988V13.3988ZM2.24236 13.3989L2.96232 13.3988L2.96229 12.8988L2.24233 12.8989L2.24236 13.3989ZM4.19226 17.9638C3.18588 16.5305 2.60499 14.8771 2.49182 13.1327L1.99287 13.165C2.11197 15.001 2.72384 16.7426 3.78305 18.2511L4.19226 17.9638ZM7.82862 21.6055H16.1709V21.1055H7.82862V21.6055ZM7.42958 22.0046C7.42958 21.7842 7.60825 21.6055 7.82862 21.6055V21.1055C7.33211 21.1055 6.92958 21.5081 6.92958 22.0046H7.42958ZM7.82862 22.4036C7.60825 22.4036 7.42958 22.225 7.42958 22.0046H6.92958C6.92958 22.5011 7.33211 22.9036 7.82862 22.9036V22.4036ZM16.1709 22.4036H7.82862V22.9036H16.1709V22.4036ZM16.57 22.0046C16.57 22.225 16.3913 22.4036 16.1709 22.4036V22.9036C16.6674 22.9036 17.07 22.5011 17.07 22.0046H16.57ZM16.1709 21.6055C16.3913 21.6055 16.57 21.7842 16.57 22.0046H17.07C17.07 21.5081 16.6674 21.1055 16.1709 21.1055V21.6055ZM15.3273 8.60793C15.4832 8.45205 15.7358 8.45209 15.8915 8.6079L16.2452 8.25444C15.8941 7.90321 15.3248 7.90326 14.9737 8.25441L15.3273 8.60793ZM13.5955 10.3397L15.3273 8.60795L14.9737 8.25439L13.2419 9.98615L13.5955 10.3397ZM11.9997 10.0152C12.4716 10.0152 12.9126 10.1473 13.2886 10.3764L13.5488 9.94946C13.0969 9.67407 12.5662 9.51516 11.9997 9.51516V10.0152ZM9.51512 12.4998C9.51512 11.13 10.6299 10.0152 11.9997 10.0152V9.51516C10.3538 9.51516 9.01512 10.8538 9.01512 12.4998H9.51512ZM11.9997 14.9844C10.63 14.9844 9.51512 13.8696 9.51512 12.4998H9.01512C9.01512 14.1457 10.3538 15.4844 11.9997 15.4844V14.9844ZM14.4843 12.4998C14.4843 13.8696 13.3695 14.9844 11.9997 14.9844V15.4844C13.6457 15.4844 14.9843 14.1457 14.9843 12.4998H14.4843ZM14.1231 11.2109C14.3522 11.5869 14.4843 12.0279 14.4843 12.4998H14.9843C14.9843 11.9333 14.8254 11.4026 14.5501 10.9507L14.1231 11.2109ZM15.8916 9.17226L14.1598 10.904L14.5133 11.2576L16.2451 9.52582L15.8916 9.17226ZM15.8916 8.60795C16.0474 8.76379 16.0474 9.01642 15.8916 9.17226L16.2451 9.52582C16.5962 9.17471 16.5962 8.60549 16.2451 8.25439L15.8916 8.60795ZM10.3132 12.4998C10.3132 13.4299 11.0696 14.1863 11.9998 14.1863V13.6863C11.3457 13.6863 10.8132 13.1538 10.8132 12.4998H10.3132ZM11.9998 10.8132C11.0696 10.8132 10.3132 11.5696 10.3132 12.4998H10.8132C10.8132 11.8458 11.3458 11.3132 11.9998 11.3132V10.8132ZM13.6863 12.4998C13.6863 11.5696 12.9299 10.8132 11.9998 10.8132V11.3132C12.6538 11.3132 13.1863 11.8457 13.1863 12.4998H13.6863ZM11.9998 14.1863C12.9299 14.1863 13.6863 13.43 13.6863 12.4998H13.1863C13.1863 13.1538 12.6538 13.6863 11.9998 13.6863V14.1863Z" fill="url(#paint1_linear_4361_1347)"/>
<defs>
<linearGradient id="paint0_linear_4361_1347" x1="0.922852" y1="12.0382" x2="23.0767" y2="12.0382" gradientUnits="userSpaceOnUse">
<stop stop-color="#E35205"/>
<stop offset="1" stop-color="#F98E20"/>
</linearGradient>
<linearGradient id="paint1_linear_4361_1347" x1="0.922852" y1="12.0382" x2="23.0767" y2="12.0382" gradientUnits="userSpaceOnUse">
<stop stop-color="#E35205"/>
<stop offset="1" stop-color="#F98E20"/>
</linearGradient>
</defs>
</svg>
