<svg width="24" height="25" viewBox="0 0 24 25" fill="none" xmlns="http://www.w3.org/2000/svg">
<path fill-rule="evenodd" clip-rule="evenodd" d="M2.51318 9.01994C2.51318 9.34724 2.77882 9.61287 3.10611 9.61287C3.43341 9.61287 3.69904 9.34724 3.69904 9.01994V5.18725C3.69904 4.64255 4.14255 4.19904 4.68725 4.19904H8.51994C8.84724 4.19904 9.11287 3.93341 9.11287 3.60611C9.11287 3.27882 8.84724 3.01318 8.51994 3.01318H4.68725C3.48796 3.01318 2.51318 3.98875 2.51318 5.18725V9.01994ZM20.894 9.61287C20.5667 9.61287 20.301 9.34724 20.301 9.01994V5.18725C20.301 4.64255 19.8575 4.19904 19.3128 4.19904H15.4801C15.1528 4.19904 14.8872 3.93341 14.8872 3.60611C14.8872 3.27882 15.1528 3.01318 15.4801 3.01318H19.3128C20.5121 3.01318 21.4869 3.98875 21.4869 5.18725V9.01994C21.4869 9.34724 21.2212 9.61287 20.894 9.61287ZM9.82596 14.4765H10.6165C11.8158 14.4765 12.7906 13.5017 12.7906 12.3024V8.34954C12.7906 8.02224 12.525 7.75661 12.1977 7.75661C11.8704 7.75661 11.6047 8.02224 11.6047 8.34954V12.3024C11.6047 12.8471 11.1612 13.2906 10.6165 13.2906H9.82596C9.49867 13.2906 9.23303 13.5562 9.23303 13.8835C9.23303 14.2108 9.49867 14.4765 9.82596 14.4765ZM8.32704 16.7541C9.00772 17.9091 10.2639 18.627 11.6047 18.627C12.9456 18.627 14.2018 17.9091 14.884 16.7541C15.0501 16.4719 14.9552 16.1082 14.6737 15.9422C14.3915 15.7738 14.0286 15.8694 13.8618 16.1517C13.393 16.947 12.5281 17.4411 11.6055 17.4411C10.6829 17.4411 9.81806 16.947 9.34925 16.1517C9.18244 15.8694 8.81798 15.7746 8.53733 15.9422C8.2551 16.109 8.16102 16.4719 8.32704 16.7541ZM19.3128 21.9869H15.4801C15.1528 21.9869 14.8872 21.7212 14.8872 21.394C14.8872 21.0667 15.1528 20.801 15.4801 20.801H19.3128C19.8575 20.801 20.301 20.3575 20.301 19.8128V15.9801C20.301 15.6528 20.5667 15.3872 20.894 15.3872C21.2212 15.3872 21.4869 15.6528 21.4869 15.9801V19.8128C21.4869 21.0113 20.5121 21.9869 19.3128 21.9869ZM4.68725 21.9869H8.51994C8.84724 21.9869 9.11287 21.7212 9.11287 21.394C9.11287 21.0667 8.84724 20.801 8.51994 20.801H4.68725C4.14255 20.801 3.69904 20.3575 3.69904 19.8128V15.9801C3.69904 15.6528 3.43341 15.3872 3.10611 15.3872C2.77882 15.3872 2.51318 15.6528 2.51318 15.9801V19.8128C2.51318 21.0113 3.48796 21.9869 4.68725 21.9869ZM7.05896 7.75661C6.73167 7.75661 6.46604 8.02224 6.46604 8.34954V9.53539C6.46604 9.86269 6.73167 10.1283 7.05896 10.1283C7.38626 10.1283 7.65189 9.86269 7.65189 9.53539V8.34954C7.65189 8.02224 7.38626 7.75661 7.05896 7.75661ZM15.5576 8.34954C15.5576 8.02224 15.8232 7.75661 16.1505 7.75661C16.4778 7.75661 16.7435 8.02224 16.7435 8.34954V9.53539C16.7435 9.86269 16.4778 10.1283 16.1505 10.1283C15.8232 10.1283 15.5576 9.86269 15.5576 9.53539V8.34954Z" fill="url(#paint0_linear_4361_1185)"/>
<path d="M8.32704 16.7541L8.11156 16.8808L8.11166 16.881L8.32704 16.7541ZM14.884 16.7541L15.0993 16.8812L15.0995 16.8808L14.884 16.7541ZM14.6737 15.9422L14.5456 16.1569L14.5467 16.1575L14.6737 15.9422ZM13.8618 16.1517L13.6466 16.0245L13.6465 16.0247L13.8618 16.1517ZM9.34925 16.1517L9.56462 16.0247L9.56447 16.0245L9.34925 16.1517ZM8.53733 15.9422L8.66454 16.1574L8.66551 16.1568L8.53733 15.9422ZM3.10611 9.36287C2.91689 9.36287 2.76318 9.20916 2.76318 9.01994H2.26318C2.26318 9.48531 2.64074 9.86287 3.10611 9.86287V9.36287ZM3.44904 9.01994C3.44904 9.20916 3.29534 9.36287 3.10611 9.36287V9.86287C3.57148 9.86287 3.94904 9.48531 3.94904 9.01994H3.44904ZM3.44904 5.18725V9.01994H3.94904V5.18725H3.44904ZM4.68725 3.94904C4.00448 3.94904 3.44904 4.50448 3.44904 5.18725H3.94904C3.94904 4.78062 4.28062 4.44904 4.68725 4.44904V3.94904ZM8.51994 3.94904H4.68725V4.44904H8.51994V3.94904ZM8.86287 3.60611C8.86287 3.79534 8.70916 3.94904 8.51994 3.94904V4.44904C8.98531 4.44904 9.36287 4.07148 9.36287 3.60611H8.86287ZM8.51994 3.26318C8.70916 3.26318 8.86287 3.41689 8.86287 3.60611H9.36287C9.36287 3.14074 8.98531 2.76318 8.51994 2.76318V3.26318ZM4.68725 3.26318H8.51994V2.76318H4.68725V3.26318ZM2.76318 5.18725C2.76318 4.12676 3.62609 3.26318 4.68725 3.26318V2.76318C3.34983 2.76318 2.26318 3.85074 2.26318 5.18725H2.76318ZM2.76318 9.01994V5.18725H2.26318V9.01994H2.76318ZM20.051 9.01994C20.051 9.48531 20.4286 9.86287 20.894 9.86287V9.36287C20.7047 9.36287 20.551 9.20916 20.551 9.01994H20.051ZM20.051 5.18725V9.01994H20.551V5.18725H20.051ZM19.3128 4.44904C19.7194 4.44904 20.051 4.78062 20.051 5.18725H20.551C20.551 4.50448 19.9956 3.94904 19.3128 3.94904V4.44904ZM15.4801 4.44904H19.3128V3.94904H15.4801V4.44904ZM14.6372 3.60611C14.6372 4.07148 15.0148 4.44904 15.4801 4.44904V3.94904C15.2909 3.94904 15.1372 3.79534 15.1372 3.60611H14.6372ZM15.4801 2.76318C15.0148 2.76318 14.6372 3.14074 14.6372 3.60611H15.1372C15.1372 3.41689 15.2909 3.26318 15.4801 3.26318V2.76318ZM19.3128 2.76318H15.4801V3.26318H19.3128V2.76318ZM21.7369 5.18725C21.7369 3.85074 20.6502 2.76318 19.3128 2.76318V3.26318C20.374 3.26318 21.2369 4.12676 21.2369 5.18725H21.7369ZM21.7369 9.01994V5.18725H21.2369V9.01994H21.7369ZM20.894 9.86287C21.3593 9.86287 21.7369 9.48531 21.7369 9.01994H21.2369C21.2369 9.20916 21.0832 9.36287 20.894 9.36287V9.86287ZM10.6165 14.2265H9.82596V14.7265H10.6165V14.2265ZM12.5406 12.3024C12.5406 13.3636 11.6778 14.2265 10.6165 14.2265V14.7265C11.9539 14.7265 13.0406 13.6398 13.0406 12.3024H12.5406ZM12.5406 8.34954V12.3024H13.0406V8.34954H12.5406ZM12.1977 8.00661C12.3869 8.00661 12.5406 8.16031 12.5406 8.34954H13.0406C13.0406 7.88417 12.663 7.50661 12.1977 7.50661V8.00661ZM11.8547 8.34954C11.8547 8.16031 12.0084 8.00661 12.1977 8.00661V7.50661C11.7323 7.50661 11.3547 7.88417 11.3547 8.34954H11.8547ZM11.8547 12.3024V8.34954H11.3547V12.3024H11.8547ZM10.6165 13.5406C11.2993 13.5406 11.8547 12.9852 11.8547 12.3024H11.3547C11.3547 12.709 11.0232 13.0406 10.6165 13.0406V13.5406ZM9.82596 13.5406H10.6165V13.0406H9.82596V13.5406ZM9.48303 13.8835C9.48303 13.6943 9.63674 13.5406 9.82596 13.5406V13.0406C9.36059 13.0406 8.98303 13.4182 8.98303 13.8835H9.48303ZM9.82596 14.2265C9.63674 14.2265 9.48303 14.0728 9.48303 13.8835H8.98303C8.98303 14.3489 9.36059 14.7265 9.82596 14.7265V14.2265ZM11.6047 18.377C10.3525 18.377 9.17816 17.7059 8.54242 16.6272L8.11166 16.881C8.83728 18.1123 10.1754 18.877 11.6047 18.877V18.377ZM14.6688 16.6269C14.0314 17.7059 12.857 18.377 11.6047 18.377V18.877C13.0341 18.877 14.3721 18.1123 15.0993 16.8812L14.6688 16.6269ZM14.5467 16.1575C14.7097 16.2537 14.7644 16.4644 14.6685 16.6273L15.0995 16.8808C15.3357 16.4793 15.2007 15.9627 14.8008 15.7268L14.5467 16.1575ZM14.077 16.2789C14.1745 16.114 14.3842 16.0605 14.5456 16.1569L14.8018 15.7275C14.3988 15.487 13.8828 15.6249 13.6466 16.0245L14.077 16.2789ZM11.6055 17.6911C12.6167 17.6911 13.5635 17.1502 14.0772 16.2786L13.6465 16.0247C13.2226 16.7438 12.4396 17.1911 11.6055 17.1911V17.6911ZM9.13388 16.2786C9.64762 17.1502 10.5944 17.6911 11.6055 17.6911V17.1911C10.7715 17.1911 9.98849 16.7438 9.56462 16.0247L9.13388 16.2786ZM8.66551 16.1568C8.82568 16.0612 9.03677 16.1143 9.13403 16.2789L9.56447 16.0245C9.32811 15.6246 8.81029 15.488 8.40915 15.7275L8.66551 16.1568ZM8.54252 16.6273C8.44661 16.4643 8.50063 16.2543 8.66453 16.1574L8.41013 15.727C8.00956 15.9637 7.87543 16.4794 8.11156 16.8808L8.54252 16.6273ZM15.4801 22.2369H19.3128V21.7369H15.4801V22.2369ZM14.6372 21.394C14.6372 21.8593 15.0148 22.2369 15.4801 22.2369V21.7369C15.2909 21.7369 15.1372 21.5832 15.1372 21.394H14.6372ZM15.4801 20.551C15.0148 20.551 14.6372 20.9286 14.6372 21.394H15.1372C15.1372 21.2047 15.2909 21.051 15.4801 21.051V20.551ZM19.3128 20.551H15.4801V21.051H19.3128V20.551ZM20.051 19.8128C20.051 20.2194 19.7194 20.551 19.3128 20.551V21.051C19.9956 21.051 20.551 20.4956 20.551 19.8128H20.051ZM20.051 15.9801V19.8128H20.551V15.9801H20.051ZM20.894 15.1372C20.4286 15.1372 20.051 15.5148 20.051 15.9801H20.551C20.551 15.7909 20.7047 15.6372 20.894 15.6372V15.1372ZM21.7369 15.9801C21.7369 15.5148 21.3593 15.1372 20.894 15.1372V15.6372C21.0832 15.6372 21.2369 15.7909 21.2369 15.9801H21.7369ZM21.7369 19.8128V15.9801H21.2369V19.8128H21.7369ZM19.3128 22.2369C20.6502 22.2369 21.7369 21.1493 21.7369 19.8128H21.2369C21.2369 20.8733 20.374 21.7369 19.3128 21.7369V22.2369ZM8.51994 21.7369H4.68725V22.2369H8.51994V21.7369ZM8.86287 21.394C8.86287 21.5832 8.70916 21.7369 8.51994 21.7369V22.2369C8.98531 22.2369 9.36287 21.8593 9.36287 21.394H8.86287ZM8.51994 21.051C8.70916 21.051 8.86287 21.2047 8.86287 21.394H9.36287C9.36287 20.9286 8.98531 20.551 8.51994 20.551V21.051ZM4.68725 21.051H8.51994V20.551H4.68725V21.051ZM3.44904 19.8128C3.44904 20.4956 4.00448 21.051 4.68725 21.051V20.551C4.28062 20.551 3.94904 20.2194 3.94904 19.8128H3.44904ZM3.44904 15.9801V19.8128H3.94904V15.9801H3.44904ZM3.10611 15.6372C3.29534 15.6372 3.44904 15.7909 3.44904 15.9801H3.94904C3.94904 15.5148 3.57148 15.1372 3.10611 15.1372V15.6372ZM2.76318 15.9801C2.76318 15.7909 2.91689 15.6372 3.10611 15.6372V15.1372C2.64074 15.1372 2.26318 15.5148 2.26318 15.9801H2.76318ZM2.76318 19.8128V15.9801H2.26318V19.8128H2.76318ZM4.68725 21.7369C3.62609 21.7369 2.76318 20.8733 2.76318 19.8128H2.26318C2.26318 21.1493 3.34983 22.2369 4.68725 22.2369V21.7369ZM6.71604 8.34954C6.71604 8.16031 6.86974 8.00661 7.05896 8.00661V7.50661C6.5936 7.50661 6.21604 7.88417 6.21604 8.34954H6.71604ZM6.71604 9.53539V8.34954H6.21604V9.53539H6.71604ZM7.05896 9.87832C6.86974 9.87832 6.71604 9.72462 6.71604 9.53539H6.21604C6.21604 10.0008 6.5936 10.3783 7.05896 10.3783V9.87832ZM7.40189 9.53539C7.40189 9.72462 7.24819 9.87832 7.05896 9.87832V10.3783C7.52433 10.3783 7.90189 10.0008 7.90189 9.53539H7.40189ZM7.40189 8.34954V9.53539H7.90189V8.34954H7.40189ZM7.05896 8.00661C7.24819 8.00661 7.40189 8.16031 7.40189 8.34954H7.90189C7.90189 7.88417 7.52433 7.50661 7.05896 7.50661V8.00661ZM16.1505 7.50661C15.6852 7.50661 15.3076 7.88417 15.3076 8.34954H15.8076C15.8076 8.16031 15.9613 8.00661 16.1505 8.00661V7.50661ZM16.9935 8.34954C16.9935 7.88417 16.6159 7.50661 16.1505 7.50661V8.00661C16.3398 8.00661 16.4935 8.16031 16.4935 8.34954H16.9935ZM16.9935 9.53539V8.34954H16.4935V9.53539H16.9935ZM16.1505 10.3783C16.6159 10.3783 16.9935 10.0008 16.9935 9.53539H16.4935C16.4935 9.72462 16.3398 9.87832 16.1505 9.87832V10.3783ZM15.3076 9.53539C15.3076 10.0008 15.6852 10.3783 16.1505 10.3783V9.87832C15.9613 9.87832 15.8076 9.72462 15.8076 9.53539H15.3076ZM15.3076 8.34954V9.53539H15.8076V8.34954H15.3076Z" fill="url(#paint1_linear_4361_1185)"/>
<defs>
<linearGradient id="paint0_linear_4361_1185" x1="2.51318" y1="12.5" x2="21.4869" y2="12.5" gradientUnits="userSpaceOnUse">
<stop stop-color="#E35205"/>
<stop offset="1" stop-color="#F98E20"/>
</linearGradient>
<linearGradient id="paint1_linear_4361_1185" x1="2.51318" y1="12.5" x2="21.4869" y2="12.5" gradientUnits="userSpaceOnUse">
<stop stop-color="#E35205"/>
<stop offset="1" stop-color="#F98E20"/>
</linearGradient>
</defs>
</svg>
