<svg width="24" height="25" viewBox="0 0 24 25" fill="none" xmlns="http://www.w3.org/2000/svg">
<path fill-rule="evenodd" clip-rule="evenodd" d="M14.617 20.052C15.666 18.554 16.757 16.351 16.975 13.5H19.93C19.547 16.552 17.441 19.07 14.617 20.052ZM4.069 13.5H7.061C7.267 16.362 8.344 18.556 9.407 20.061C6.57 19.084 4.454 16.561 4.069 13.5ZM9.438 4.929C8.386 6.427 7.285 8.637 7.065 11.5H4.069C4.455 8.428 6.586 5.897 9.438 4.929ZM9.079 11.5C9.385 8.228 11.059 5.95 12.026 4.897C13.026 5.968 14.674 8.225 14.959 11.5H9.079ZM9.08 13.5H14.962C14.656 16.777 12.978 19.055 12.012 20.108C10.965 18.998 9.359 16.772 9.08 13.5ZM19.93 11.5H16.978C16.773 8.651 15.708 6.464 14.65 4.961C17.458 5.951 19.549 8.46 19.93 11.5ZM22 12.5C22 6.996 17.529 2.518 12.028 2.502C12.024 2.502 12.02 2.501 12.015 2.501C12.011 2.501 12.005 2.5 12 2.5C6.486 2.5 2 6.987 2 12.5C2 18.014 6.486 22.5 12 22.5C12.006 22.5 12.011 22.499 12.015 22.499C12.017 22.499 12.018 22.5 12.02 22.5C12.023 22.5 12.026 22.498 12.028 22.498C17.529 22.483 22 18.004 22 12.5Z" fill="url(#paint0_linear_4361_1310)"/>
<defs>
<linearGradient id="paint0_linear_4361_1310" x1="2" y1="12.5" x2="22" y2="12.5" gradientUnits="userSpaceOnUse">
<stop stop-color="#E35205"/>
<stop offset="1" stop-color="#F98E20"/>
</linearGradient>
</defs>
</svg>
