<svg width="24" height="25" viewBox="0 0 24 25" fill="none" xmlns="http://www.w3.org/2000/svg">
<path fill-rule="evenodd" clip-rule="evenodd" d="M21.4311 4.69535L21.8665 5.82708C25.431 15.0952 19.5727 19.6838 17.6438 21.1947L17.6432 21.1952L17.4378 21.3564C15.5736 22.8195 13.2858 23.6394 10.9166 23.6935C9.36814 23.7614 7.85706 23.2058 6.72139 22.1509C6.3934 21.8205 6.11047 21.4482 5.87995 21.0437C5.34086 21.1094 4.79836 21.1434 4.25528 21.1454C3.16234 21.1684 2.0729 21.0132 1.02979 20.6861L1.51151 19.3679C2.40014 19.6344 3.32488 19.761 4.25248 19.743C4.59045 19.743 4.95157 19.7262 5.32951 19.6932C5.155 19.014 5.09339 18.3106 5.1472 17.6114C5.04294 17.5835 4.94022 17.5502 4.83938 17.5118C3.80941 17.0815 2.99348 16.2583 2.57241 15.2245C1.97075 13.7175 1.98687 12.0343 2.61729 10.5391C3.24135 8.95721 4.53646 7.58147 6.56993 6.33684C8.39795 5.22153 9.1343 2.76493 9.1635 2.66749L9.16435 2.66469L9.49391 1.5L10.3403 2.36387C12.4824 4.55791 13.4907 6.91463 13.3414 9.38494C13.8855 9.25943 14.4486 9.14723 15.0516 9.06099C18.2287 8.60731 20.6436 5.6672 20.6675 5.63705L21.4311 4.69535ZM5.37159 16.2125L5.3828 16.2167C5.79524 14.707 6.5996 13.3332 7.71428 12.2346C8.89036 11.1013 10.3178 10.2623 11.8801 9.78602C12.1063 7.74506 11.4513 5.70445 10.0794 4.17646C9.49803 5.54182 8.53174 6.70839 7.29847 7.53378C5.53076 8.61363 4.42708 9.76569 3.91801 11.0566C3.42415 12.2063 3.4025 13.5042 3.85771 14.6698C4.1324 15.368 4.67872 15.9247 5.37159 16.2125ZM16.7814 20.088L16.5711 20.2542C13.7193 22.5127 9.49882 22.944 7.71428 21.1594C7.59626 21.041 7.48617 20.915 7.38472 20.7822C10.2547 20.1287 13.753 18.4388 17.3459 14.5577L16.3165 13.6047C12.8036 17.4003 9.4259 18.9513 6.7284 19.4948C6.53605 18.8397 6.47947 18.1523 6.56222 17.4746C6.77595 15.8568 7.53122 14.359 8.70507 13.2254C10.1502 11.7795 12.2917 10.8715 15.25 10.4494C17.4084 10.0317 19.3891 8.96821 20.9297 7.39986C23.311 14.9749 18.6031 18.6618 16.7814 20.088ZM18.2939 13.482L17.2218 12.5782C17.5079 12.2374 17.7954 11.8826 18.0822 11.5103L19.1928 12.3664C18.8927 12.7544 18.5931 13.1263 18.2939 13.482Z" fill="url(#paint0_linear_4361_1040)"/>
<path d="M21.8665 5.82708L22.0998 5.73733L22.0998 5.7373L21.8665 5.82708ZM21.4311 4.69535L21.6644 4.60557L21.5092 4.20211L21.2369 4.53789L21.4311 4.69535ZM17.6438 21.1947L17.7979 21.3915L17.798 21.3915L17.6438 21.1947ZM17.6432 21.1952L17.4891 20.9983L17.4888 20.9985L17.6432 21.1952ZM17.4378 21.3564L17.5921 21.5531L17.5921 21.5531L17.4378 21.3564ZM10.9166 23.6935L10.9109 23.4435L10.9057 23.4438L10.9166 23.6935ZM6.72139 22.1509L6.54382 22.3272L6.55125 22.3341L6.72139 22.1509ZM5.87995 21.0437L6.09716 20.9199L6.0148 20.7754L5.84969 20.7956L5.87995 21.0437ZM4.25528 21.1454L4.25435 20.8953L4.25003 20.8954L4.25528 21.1454ZM1.02979 20.6861L0.794972 20.6003L0.705082 20.8463L0.95498 20.9247L1.02979 20.6861ZM1.51151 19.3679L1.58333 19.1284L1.35759 19.0607L1.27669 19.2821L1.51151 19.3679ZM4.25248 19.743V19.4929L4.24764 19.493L4.25248 19.743ZM5.32951 19.6932L5.35123 19.9423L5.64504 19.9166L5.57165 19.631L5.32951 19.6932ZM5.1472 17.6114L5.39647 17.6305L5.4124 17.4235L5.21177 17.3698L5.1472 17.6114ZM4.83938 17.5118L4.74296 17.7426L4.75034 17.7454L4.83938 17.5118ZM2.57241 15.2245L2.34023 15.3172L2.34088 15.3188L2.57241 15.2245ZM2.61729 10.5391L2.84771 10.6363L2.84985 10.6309L2.61729 10.5391ZM6.56993 6.33684L6.43972 6.12343L6.43942 6.12361L6.56993 6.33684ZM9.1635 2.66749L8.92415 2.59532L8.92403 2.59571L9.1635 2.66749ZM9.16435 2.66469L9.40374 2.73687L9.40491 2.73275L9.16435 2.66469ZM9.49391 1.5L9.67249 1.32504L9.37075 1.01706L9.25336 1.43193L9.49391 1.5ZM10.3403 2.36387L10.5191 2.18922L10.5188 2.18892L10.3403 2.36387ZM13.3414 9.38494L13.0918 9.36985L13.0716 9.70372L13.3976 9.62854L13.3414 9.38494ZM15.0516 9.06099L15.0162 8.8135L15.0162 8.81351L15.0516 9.06099ZM20.6675 5.63705L20.4733 5.47958L20.4714 5.482L20.6675 5.63705ZM5.3828 16.2167L5.29502 16.4508L5.55172 16.547L5.62397 16.2826L5.3828 16.2167ZM5.37159 16.2125L5.27564 16.4435L5.2838 16.4466L5.37159 16.2125ZM7.71428 12.2346L7.5408 12.0546L7.5388 12.0565L7.71428 12.2346ZM11.8801 9.78602L11.953 10.0252L12.1104 9.97716L12.1286 9.81356L11.8801 9.78602ZM10.0794 4.17646L10.2654 4.00945L10.0032 3.71734L9.84939 4.07852L10.0794 4.17646ZM7.29847 7.53378L7.42891 7.74731L7.43752 7.74155L7.29847 7.53378ZM3.91801 11.0566L4.14782 11.1553L4.15058 11.1483L3.91801 11.0566ZM3.85771 14.6698L3.62483 14.7608L3.62507 14.7614L3.85771 14.6698ZM16.5711 20.2542L16.4161 20.058L16.4159 20.0582L16.5711 20.2542ZM16.7814 20.088L16.6273 19.8911L16.6265 19.8918L16.7814 20.088ZM7.71428 21.1594L7.53724 21.3359L7.5375 21.3362L7.71428 21.1594ZM7.38472 20.7822L7.32921 20.5384L6.94993 20.6248L7.18604 20.9339L7.38472 20.7822ZM17.3459 14.5577L17.5294 14.7275L17.6992 14.544L17.5157 14.3742L17.3459 14.5577ZM16.3165 13.6047L16.4864 13.4213L16.3029 13.2514L16.1331 13.4349L16.3165 13.6047ZM6.7284 19.4948L6.48853 19.5652L6.5531 19.7851L6.77777 19.7399L6.7284 19.4948ZM6.56222 17.4746L6.31436 17.4419L6.31406 17.4443L6.56222 17.4746ZM8.70507 13.2254L8.87877 13.4052L8.88189 13.4021L8.70507 13.2254ZM15.25 10.4494L15.2854 10.6972L15.2975 10.6948L15.25 10.4494ZM20.9297 7.39986L21.1682 7.32488L21.0433 6.92749L20.7514 7.22466L20.9297 7.39986ZM17.2218 12.5782L17.0303 12.4174L16.8699 12.6085L17.0606 12.7693L17.2218 12.5782ZM18.2939 13.482L18.1328 13.6732L18.3241 13.8345L18.4852 13.6429L18.2939 13.482ZM18.0822 11.5103L18.2348 11.3123L18.0367 11.1596L17.8841 11.3577L18.0822 11.5103ZM19.1928 12.3664L19.3906 12.5194L19.5438 12.3213L19.3455 12.1684L19.1928 12.3664ZM22.0998 5.7373L21.6644 4.60557L21.1977 4.78512L21.6332 5.91685L22.0998 5.7373ZM17.798 21.3915C18.7646 20.6344 20.7512 19.0806 22.0383 16.5326C23.3312 13.9731 23.9067 10.4353 22.0998 5.73733L21.6332 5.91682C23.3908 10.487 22.8194 13.8775 21.592 16.3071C20.3589 18.7482 18.4519 20.2442 17.4897 20.9979L17.798 21.3915ZM17.7973 21.392L17.7979 21.3915L17.4897 20.9979L17.4891 20.9983L17.7973 21.392ZM17.5921 21.5531L17.7976 21.3918L17.4888 20.9985L17.2834 21.1598L17.5921 21.5531ZM10.9223 23.9435C13.3455 23.8881 15.6854 23.0495 17.5921 21.5531L17.2834 21.1598C15.4617 22.5895 13.226 23.3907 10.9109 23.4436L10.9223 23.9435ZM6.55125 22.3341C7.73594 23.4345 9.31224 24.0141 10.9276 23.9433L10.9057 23.4438C9.42403 23.5087 7.97818 22.9771 6.89153 21.9677L6.55125 22.3341ZM5.66275 21.1675C5.90416 21.5911 6.20047 21.981 6.54396 22.327L6.89881 21.9748C6.58633 21.66 6.31678 21.3053 6.09716 20.9199L5.66275 21.1675ZM4.25621 21.3954C4.80908 21.3933 5.36138 21.3588 5.91021 21.2919L5.84969 20.7956C5.32035 20.8601 4.78764 20.8934 4.25435 20.8954L4.25621 21.3954ZM0.95498 20.9247C2.02398 21.2599 3.14046 21.4189 4.26053 21.3953L4.25003 20.8954C3.18422 20.9178 2.12182 20.7665 1.10459 20.4476L0.95498 20.9247ZM1.27669 19.2821L0.794972 20.6003L1.2646 20.7719L1.74632 19.4537L1.27669 19.2821ZM4.24764 19.493C3.34599 19.5105 2.44711 19.3875 1.58333 19.1284L1.43968 19.6073C2.35317 19.8813 3.30378 20.0114 4.25732 19.9929L4.24764 19.493ZM5.3078 19.4442C4.93612 19.4766 4.5823 19.493 4.25248 19.493V19.993C4.59861 19.993 4.96702 19.9758 5.35123 19.9423L5.3078 19.4442ZM4.89794 17.5922C4.84202 18.3188 4.90605 19.0496 5.08738 19.7554L5.57165 19.631C5.40396 18.9783 5.34475 18.3025 5.39647 17.6305L4.89794 17.5922ZM4.75034 17.7454C4.85913 17.7869 4.97002 17.8228 5.08264 17.8529L5.21177 17.3698C5.11587 17.3442 5.02131 17.3136 4.92842 17.2782L4.75034 17.7454ZM2.34088 15.3188C2.78706 16.4142 3.65163 17.2865 4.743 17.7425L4.93575 17.2811C3.96719 16.8765 3.19991 16.1023 2.80395 15.1302L2.34088 15.3188ZM2.38693 10.442C1.73097 11.9977 1.71419 13.7492 2.34024 15.3172L2.80459 15.1318C2.2273 13.6859 2.24277 12.0708 2.84765 10.6362L2.38693 10.442ZM6.43942 6.12361C4.37792 7.38539 3.03536 8.79813 2.38473 10.4474L2.84985 10.6309C3.44735 9.11629 4.69501 7.77754 6.70044 6.55007L6.43942 6.12361ZM8.92403 2.59571C8.91185 2.63634 8.72629 3.25662 8.32162 4.00107C7.91508 4.74898 7.30009 5.5985 6.43972 6.12343L6.70014 6.55026C7.66779 5.95987 8.33498 5.02343 8.76092 4.23986C9.18873 3.45282 9.38595 2.79608 9.40298 2.73927L8.92403 2.59571ZM8.92499 2.59251L8.92415 2.59532L9.40286 2.73966L9.40371 2.73686L8.92499 2.59251ZM9.25336 1.43193L8.9238 2.59662L9.40491 2.73275L9.73447 1.56807L9.25336 1.43193ZM10.5188 2.18892L9.67249 1.32504L9.31533 1.67496L10.1617 2.53883L10.5188 2.18892ZM13.5909 9.40003C13.7455 6.84298 12.6978 4.42066 10.5191 2.18922L10.1614 2.53852C12.267 4.69516 13.2359 6.98628 13.0918 9.36985L13.5909 9.40003ZM15.0162 8.81351C14.4046 8.90098 13.8344 9.01465 13.2852 9.14134L13.3976 9.62854C13.9366 9.5042 14.4925 9.39349 15.087 9.30847L15.0162 8.81351ZM20.4714 5.482C20.4715 5.48175 20.322 5.66472 20.0476 5.94657C19.774 6.22757 19.3786 6.60451 18.8867 6.99426C17.8991 7.77691 16.5424 8.59558 15.0162 8.8135L15.0869 9.30848C16.7379 9.07273 18.1772 8.1945 19.1973 7.38614C20.2195 6.5761 20.8425 5.81878 20.8636 5.79211L20.4714 5.482ZM21.2369 4.53789L20.4733 5.47959L20.8616 5.79451L21.6252 4.8528L21.2369 4.53789ZM5.47059 15.9826L5.45938 15.9784L5.2838 16.4466L5.29502 16.4508L5.47059 15.9826ZM7.5388 12.0565C6.39271 13.186 5.5657 14.5986 5.14164 16.1508L5.62397 16.2826C6.02478 14.8154 6.80648 13.4803 7.88976 12.4127L7.5388 12.0565ZM11.8072 9.54689C10.2072 10.0347 8.74528 10.894 7.54081 12.0546L7.88775 12.4146C9.03544 11.3087 10.4284 10.4899 11.953 10.0252L11.8072 9.54689ZM9.89338 4.34348C11.2176 5.81847 11.8499 7.78831 11.6316 9.75849L12.1286 9.81356C12.3626 7.70182 11.6849 5.59044 10.2654 4.00945L9.89338 4.34348ZM7.43752 7.74155C8.71113 6.88915 9.70903 5.68442 10.3094 4.2744L9.84939 4.07852C9.28703 5.39922 8.35235 6.52763 7.15942 7.32602L7.43752 7.74155ZM4.15058 11.1483C4.63208 9.92731 5.68591 8.8118 7.4288 7.74713L7.16815 7.32044C5.37561 8.41545 4.22208 9.60406 3.68544 10.9649L4.15058 11.1483ZM4.09058 14.5789C3.65926 13.4745 3.67977 12.2447 4.14771 11.1553L3.6883 10.9579C3.16852 12.168 3.14574 13.534 3.62483 14.7608L4.09058 14.5789ZM5.46747 15.9816C4.8372 15.7198 4.34023 15.2134 4.09034 14.5783L3.62507 14.7614C3.92457 15.5226 4.52023 16.1296 5.2757 16.4434L5.46747 15.9816ZM16.726 20.4503L16.9364 20.2842L16.6265 19.8918L16.4161 20.058L16.726 20.4503ZM7.5375 21.3362C8.50489 22.3036 10.0961 22.6425 11.7679 22.4717C13.4482 22.2999 15.2617 21.6101 16.7263 20.4501L16.4159 20.0582C15.0287 21.1568 13.306 21.8119 11.7171 21.9742C10.1195 22.1375 8.70821 21.7998 7.89106 20.9826L7.5375 21.3362ZM7.18604 20.9339C7.29414 21.0754 7.41145 21.2098 7.53724 21.3359L7.89132 20.9829C7.78106 20.8723 7.6782 20.7546 7.5834 20.6304L7.18604 20.9339ZM17.1624 14.3878C13.6019 18.2339 10.1475 19.8967 7.32921 20.5384L7.44022 21.0259C10.3619 20.3606 13.904 18.6436 17.5294 14.7275L17.1624 14.3878ZM16.1467 13.7882L17.1761 14.7411L17.5157 14.3742L16.4864 13.4213L16.1467 13.7882ZM6.77777 19.7399C9.53001 19.1854 12.9537 17.6062 16.5 13.7745L16.1331 13.4349C12.6534 17.1944 9.32178 18.7173 6.67903 19.2497L6.77777 19.7399ZM6.31406 17.4443C6.22719 18.1558 6.28659 18.8775 6.48853 19.5652L6.96827 19.4243C6.78551 18.8019 6.73176 18.1488 6.81037 17.5049L6.31406 17.4443ZM8.5314 13.0456C7.31692 14.2185 6.5355 15.7681 6.31437 17.4419L6.81006 17.5074C7.0164 15.9455 7.74553 14.4996 8.87874 13.4052L8.5314 13.0456ZM15.2147 10.2019C12.2266 10.6282 10.0258 11.5504 8.52825 13.0487L8.88189 13.4021C10.2747 12.0086 12.3568 11.1147 15.2853 10.6968L15.2147 10.2019ZM20.7514 7.22466C19.2462 8.75689 17.3112 9.79584 15.2025 10.2039L15.2975 10.6948C17.5057 10.2675 19.5319 9.17953 21.1081 7.57505L20.7514 7.22466ZM16.9355 20.2848C17.8475 19.5708 19.5177 18.2653 20.6516 16.1686C21.791 14.0618 22.3789 11.1763 21.1682 7.32488L20.6912 7.47483C21.8618 11.1984 21.2863 13.9439 20.2118 15.9308C19.1317 17.9279 17.537 19.1789 16.6273 19.8911L16.9355 20.2848ZM17.0606 12.7693L18.1328 13.6732L18.4551 13.2909L17.3829 12.387L17.0606 12.7693ZM17.8841 11.3577C17.5997 11.7269 17.3145 12.0789 17.0303 12.4174L17.4133 12.7389C17.7013 12.3959 17.991 12.0383 18.2802 11.6628L17.8841 11.3577ZM19.3455 12.1684L18.2348 11.3123L17.9295 11.7083L19.0402 12.5644L19.3455 12.1684ZM18.4852 13.6429C18.7867 13.2845 19.0885 12.9099 19.3906 12.5194L18.9951 12.2135C18.6969 12.5989 18.3995 12.9681 18.1026 13.3211L18.4852 13.6429Z" fill="url(#paint1_linear_4361_1040)"/>
<defs>
<linearGradient id="paint0_linear_4361_1040" x1="1.02979" y1="12.5995" x2="22.9935" y2="12.5995" gradientUnits="userSpaceOnUse">
<stop stop-color="#E35205"/>
<stop offset="1" stop-color="#F98E20"/>
</linearGradient>
<linearGradient id="paint1_linear_4361_1040" x1="1.02979" y1="12.5995" x2="22.9935" y2="12.5995" gradientUnits="userSpaceOnUse">
<stop stop-color="#E35205"/>
<stop offset="1" stop-color="#F98E20"/>
</linearGradient>
</defs>
</svg>
