<svg width="24" height="25" viewBox="0 0 24 25" fill="none" xmlns="http://www.w3.org/2000/svg">
<path fill-rule="evenodd" clip-rule="evenodd" d="M11.5272 4.39973C13.7092 2.21273 17.2302 1.81773 19.6622 3.71973C22.5752 5.99773 22.7662 10.2427 20.2352 12.7797L18.8122 14.2047C18.4192 14.5987 17.7832 14.5987 17.3902 14.2047C16.9972 13.8117 16.9972 13.1727 17.3902 12.7797L18.8122 11.3537C20.4672 9.69673 20.3772 6.94173 18.5402 5.40373C16.9132 4.04073 14.4712 4.30073 12.9722 5.80273L11.6992 7.07773C11.3072 7.47173 10.6692 7.47173 10.2772 7.07773C9.88422 6.68473 9.88022 6.04973 10.4542 5.47473L11.5272 4.39973ZM13.2931 9.79303L9.29312 13.793C8.90212 14.184 8.90212 14.816 9.29312 15.207C9.48812 15.402 9.74412 15.5 10.0001 15.5C10.2561 15.5 10.5121 15.402 10.7071 15.207L14.7071 11.207C15.0981 10.816 15.0981 10.184 14.7071 9.79303C14.3161 9.40203 13.6841 9.40203 13.2931 9.79303ZM12.2804 17.8965L11.0064 19.1675C9.50542 20.6645 7.05842 20.9225 5.43042 19.5655C3.59142 18.0335 3.50042 15.2875 5.15742 13.6345L6.58242 12.2145C6.97542 11.8225 6.97542 11.1865 6.58242 10.7935C6.18942 10.4025 5.55142 10.4025 5.15742 10.7935L3.88242 12.0665C1.71042 14.2325 1.32942 17.7165 3.20742 20.1405C5.47842 23.0735 9.73842 23.2715 12.2804 20.7375L13.7054 19.3175C14.0984 18.9245 14.0984 18.2895 13.7054 17.8965C13.3114 17.5035 12.6744 17.5035 12.2804 17.8965Z" fill="url(#paint0_linear_4361_1231)"/>
<defs>
<linearGradient id="paint0_linear_4361_1231" x1="2.00049" y1="12.5" x2="22.0003" y2="12.5" gradientUnits="userSpaceOnUse">
<stop stop-color="#E35205"/>
<stop offset="1" stop-color="#F98E20"/>
</linearGradient>
</defs>
</svg>
