<svg width="24" height="25" viewBox="0 0 24 25" fill="none" xmlns="http://www.w3.org/2000/svg">
<path fill-rule="evenodd" clip-rule="evenodd" d="M20.1445 3.46128C20.2421 2.97034 20.7193 2.65161 21.2102 2.74913C21.7011 2.84678 22.02 3.32394 21.9223 3.81481L20.9127 8.8907C20.8658 9.12647 20.7272 9.33397 20.5273 9.4675C20.3772 9.5678 20.2018 9.62025 20.0238 9.62025C19.9648 9.62025 19.9056 9.61451 19.847 9.60285L14.7711 8.59312C14.2801 8.49542 13.9613 8.01826 14.059 7.52732C14.1567 7.03638 14.6337 6.71765 15.1248 6.81524L18.2201 7.43101C16.7496 5.51687 14.4535 4.34974 11.9702 4.34974C8.83692 4.34974 6.00157 6.20533 4.74671 9.07705C4.59789 9.41759 4.26502 9.62073 3.91571 9.62073C3.7945 9.62073 3.67142 9.59626 3.55323 9.54466C3.09456 9.34424 2.8852 8.80992 3.08562 8.35125C4.629 4.81934 8.11638 2.53711 11.9701 2.53711C14.9873 2.53711 17.7806 3.93723 19.5917 6.24055L20.1445 3.46128ZM19.1934 15.3798C19.3938 14.9212 19.928 14.7117 20.3868 14.9122C20.8455 15.1126 21.0549 15.647 20.8544 16.1056C19.3112 19.6376 15.8239 21.9198 11.9701 21.9198C8.95257 21.9198 6.15922 20.5196 4.34822 18.2161L3.79547 20.9951C3.70967 21.4263 3.33106 21.7248 2.90749 21.7248C2.84888 21.7248 2.78943 21.719 2.72973 21.7072C2.23879 21.6096 1.91994 21.1324 2.01758 20.6415L3.02719 15.5657C3.1249 15.0748 3.602 14.7561 4.09293 14.8535L9.1687 15.8632C9.65964 15.9608 9.97849 16.438 9.88085 16.9289C9.78314 17.4198 9.3061 17.7387 8.81511 17.641L5.71964 17.0253C7.19015 18.9397 9.48635 20.1071 11.9701 20.1071C15.1034 20.1071 17.9387 18.2516 19.1934 15.3798Z" fill="url(#paint0_linear_4361_1206)"/>
<path d="M21.2102 2.74913L21.259 2.50394L21.2589 2.50392L21.2102 2.74913ZM20.1445 3.46128L20.3897 3.51005V3.51005L20.1445 3.46128ZM21.9223 3.81481L21.6771 3.76601L21.6771 3.76604L21.9223 3.81481ZM20.9127 8.8907L20.6675 8.84193L20.6675 8.84194L20.9127 8.8907ZM20.5273 9.4675L20.3884 9.25963L20.3884 9.25964L20.5273 9.4675ZM19.847 9.60285L19.7982 9.84805L19.7982 9.84805L19.847 9.60285ZM14.7711 8.59312L14.7223 8.83831L14.7223 8.83832L14.7711 8.59312ZM14.059 7.52732L13.8138 7.47852L13.8138 7.47855L14.059 7.52732ZM15.1248 6.81524L15.1736 6.57004L15.1735 6.57003L15.1248 6.81524ZM18.2201 7.43101L18.1713 7.6762L18.8234 7.80592L18.4184 7.2787L18.2201 7.43101ZM4.74671 9.07705L4.97579 9.17716L4.97579 9.17715L4.74671 9.07705ZM3.55323 9.54466L3.45313 9.77375L3.4532 9.77378L3.55323 9.54466ZM3.08562 8.35125L2.85654 8.25114L2.85654 8.25115L3.08562 8.35125ZM19.5917 6.24055L19.3951 6.39508L19.7309 6.82209L19.8369 6.28932L19.5917 6.24055ZM20.3868 14.9122L20.4869 14.6831L20.4869 14.6831L20.3868 14.9122ZM19.1934 15.3798L19.4225 15.4799L19.4225 15.4799L19.1934 15.3798ZM20.8544 16.1056L20.6254 16.0055L20.6254 16.0055L20.8544 16.1056ZM4.34822 18.2161L4.54475 18.0616L4.209 17.6345L4.10302 18.1673L4.34822 18.2161ZM3.79547 20.9951L4.04066 21.0438L4.04067 21.0438L3.79547 20.9951ZM2.72973 21.7072L2.68096 21.9524L2.68108 21.9524L2.72973 21.7072ZM2.01758 20.6415L1.77239 20.5927L1.77239 20.5927L2.01758 20.6415ZM3.02719 15.5657L2.782 15.5169L2.78199 15.5169L3.02719 15.5657ZM4.09293 14.8535L4.1417 14.6083L4.14158 14.6083L4.09293 14.8535ZM9.1687 15.8632L9.11993 16.1083L9.11993 16.1083L9.1687 15.8632ZM9.88085 16.9289L10.126 16.9777L10.126 16.9777L9.88085 16.9289ZM8.81511 17.641L8.8639 17.3958L8.86388 17.3958L8.81511 17.641ZM5.71964 17.0253L5.76841 16.7801L5.11644 16.6504L5.52138 17.1776L5.71964 17.0253ZM21.2589 2.50392C20.6327 2.37952 20.0239 2.7861 19.8993 3.41251L20.3897 3.51005C20.4604 3.15458 20.8059 2.9237 21.1615 2.99434L21.2589 2.50392ZM22.1675 3.86362C22.2922 3.23728 21.8853 2.62851 21.259 2.50394L21.1614 2.99433C21.517 3.06504 21.7478 3.4106 21.6771 3.76601L22.1675 3.86362ZM21.1579 8.93948L22.1675 3.86358L21.6771 3.76604L20.6675 8.84193L21.1579 8.93948ZM20.6662 9.67538C20.9212 9.50499 21.0981 9.24025 21.1579 8.93947L20.6675 8.84194C20.6335 9.0127 20.5332 9.16294 20.3884 9.25963L20.6662 9.67538ZM20.0238 9.87025C20.2508 9.87025 20.4747 9.80335 20.6662 9.67536L20.3884 9.25964C20.2797 9.33226 20.1527 9.37025 20.0238 9.37025V9.87025ZM19.7982 9.84805C19.8731 9.86293 19.9486 9.87025 20.0238 9.87025V9.37025C19.9811 9.37025 19.9382 9.36609 19.8957 9.35765L19.7982 9.84805ZM14.7223 8.83832L19.7982 9.84805L19.8957 9.35765L14.8198 8.34793L14.7223 8.83832ZM13.8138 7.47855C13.6892 8.1049 14.0959 8.71366 14.7223 8.83831L14.8199 8.34793C14.4643 8.27717 14.2335 7.93162 14.3042 7.57609L13.8138 7.47855ZM15.1735 6.57003C14.5471 6.44555 13.9384 6.85216 13.8138 7.47852L14.3042 7.57612C14.3749 7.2206 14.7204 6.98976 15.076 7.06044L15.1735 6.57003ZM18.2689 7.18581L15.1736 6.57004L15.076 7.06043L18.1713 7.6762L18.2689 7.18581ZM11.9702 4.59974C14.3745 4.59974 16.5979 5.72974 18.0219 7.58331L18.4184 7.2787C16.9013 5.304 14.5324 4.09974 11.9702 4.09974V4.59974ZM4.97579 9.17715C6.19088 6.39645 8.93632 4.59974 11.9702 4.59974V4.09974C8.73752 4.09974 5.81226 6.0142 4.51762 8.97695L4.97579 9.17715ZM3.91571 9.87073C4.36081 9.87073 4.78577 9.61198 4.97579 9.17716L4.51763 8.97694C4.41 9.22321 4.16922 9.37073 3.91571 9.37073V9.87073ZM3.4532 9.77378C3.60345 9.83938 3.76064 9.87073 3.91571 9.87073V9.37073C3.82837 9.37073 3.73939 9.35315 3.65327 9.31555L3.4532 9.77378ZM2.85654 8.25115C2.60083 8.83634 2.86794 9.51804 3.45313 9.77375L3.65334 9.31558C3.32118 9.17044 3.16957 8.7835 3.3147 8.45135L2.85654 8.25115ZM11.9701 2.28711C8.01699 2.28711 4.4397 4.62821 2.85654 8.25114L3.3147 8.45135C4.81831 5.01048 8.21577 2.78711 11.9701 2.78711V2.28711ZM19.7882 6.08603C17.9305 3.72342 15.0653 2.28711 11.9701 2.28711V2.78711C14.9094 2.78711 17.6307 4.15104 19.3951 6.39508L19.7882 6.08603ZM19.8993 3.41251L19.3465 6.19178L19.8369 6.28932L20.3897 3.51005L19.8993 3.41251ZM20.4869 14.6831C19.9015 14.4274 19.22 14.6945 18.9643 15.2798L19.4225 15.4799C19.5676 15.1478 19.9544 14.9961 20.2867 15.1413L20.4869 14.6831ZM21.0835 16.2057C21.3392 15.6205 21.0721 14.9388 20.4869 14.6831L20.2867 15.1413C20.6189 15.2864 20.7705 15.6734 20.6254 16.0055L21.0835 16.2057ZM11.9701 22.1698C15.9233 22.1698 19.5005 19.8287 21.0835 16.2057L20.6254 16.0055C19.1219 19.4465 15.7245 21.6698 11.9701 21.6698V22.1698ZM4.15168 18.3706C6.0093 20.7334 8.87463 22.1698 11.9701 22.1698V21.6698C9.03051 21.6698 6.30913 20.3058 4.54475 18.0616L4.15168 18.3706ZM4.04067 21.0438L4.59342 18.2649L4.10302 18.1673L3.55027 20.9463L4.04067 21.0438ZM2.90749 21.9748C3.44803 21.9748 3.93115 21.5943 4.04066 21.0438L3.55028 20.9463C3.48819 21.2583 3.21409 21.4748 2.90749 21.4748V21.9748ZM2.68108 21.9524C2.75677 21.9674 2.83252 21.9748 2.90749 21.9748V21.4748C2.86524 21.4748 2.82208 21.4706 2.77838 21.462L2.68108 21.9524ZM1.77239 20.5927C1.64781 21.2191 2.05461 21.8278 2.68096 21.9524L2.7785 21.462C2.42297 21.3913 2.19207 21.0457 2.26278 20.6902L1.77239 20.5927ZM2.78199 15.5169L1.77239 20.5927L2.26278 20.6902L3.27239 15.6145L2.78199 15.5169ZM4.14158 14.6083C3.51539 14.4841 2.90667 14.8905 2.782 15.5169L3.27238 15.6145C3.34312 15.259 3.6886 15.0282 4.04428 15.0988L4.14158 14.6083ZM9.21747 15.618L4.1417 14.6083L4.04416 15.0987L9.11993 16.1083L9.21747 15.618ZM10.126 16.9777C10.2506 16.3513 9.84382 15.7425 9.21747 15.618L9.11993 16.1083C9.47546 16.1791 9.70636 16.5246 9.63565 16.8801L10.126 16.9777ZM8.76632 17.8862C9.39281 18.0109 10.0014 17.604 10.126 16.9777L9.63566 16.8801C9.56488 17.2357 9.2194 17.4666 8.8639 17.3958L8.76632 17.8862ZM5.67087 17.2705L8.76634 17.8862L8.86388 17.3958L5.76841 16.7801L5.67087 17.2705ZM11.9701 19.8571C9.56531 19.8571 7.34189 18.7268 5.9179 16.873L5.52138 17.1776C7.03842 19.1526 9.40738 20.3571 11.9701 20.3571V19.8571ZM18.9643 15.2797C17.7494 18.0604 15.004 19.8571 11.9701 19.8571V20.3571C15.2028 20.3571 18.128 18.4427 19.4225 15.4799L18.9643 15.2797Z" fill="url(#paint1_linear_4361_1206)"/>
<defs>
<linearGradient id="paint0_linear_4361_1206" x1="2" y1="12.2284" x2="21.9399" y2="12.2284" gradientUnits="userSpaceOnUse">
<stop stop-color="#E35205"/>
<stop offset="1" stop-color="#F98E20"/>
</linearGradient>
<linearGradient id="paint1_linear_4361_1206" x1="2" y1="12.2284" x2="21.9399" y2="12.2284" gradientUnits="userSpaceOnUse">
<stop stop-color="#E35205"/>
<stop offset="1" stop-color="#F98E20"/>
</linearGradient>
</defs>
</svg>
