<svg width="24" height="25" viewBox="0 0 24 25" fill="none" xmlns="http://www.w3.org/2000/svg">
<path fill-rule="evenodd" clip-rule="evenodd" d="M10 5.5C11.103 5.5 12 6.397 12 7.5C12 8.603 11.103 9.5 10 9.5C8.897 9.5 8 8.603 8 7.5C8 6.397 8.897 5.5 10 5.5ZM10 11.5C12.206 11.5 14 9.706 14 7.5C14 5.294 12.206 3.5 10 3.5C7.794 3.5 6 5.294 6 7.5C6 9.706 7.794 11.5 10 11.5ZM10 13.5C6.141 13.5 3 16.64 3 20.5C3 21.052 3.447 21.5 4 21.5C4.553 21.5 5 21.052 5 20.5C5 17.743 7.243 15.5 10 15.5C12.757 15.5 15 17.743 15 20.5C15 21.052 15.447 21.5 16 21.5C16.553 21.5 17 21.052 17 20.5C17 16.64 13.859 13.5 10 13.5ZM20 6.5H21C21.55 6.5 22 6.95 22 7.5C22 8.05 21.55 8.5 21 8.5H20V9.5C20 10.05 19.55 10.5 19 10.5C18.45 10.5 18 10.05 18 9.5V8.5H17C16.45 8.5 16 8.05 16 7.5C16 6.95 16.45 6.5 17 6.5H18V5.5C18 4.95 18.45 4.5 19 4.5C19.55 4.5 20 4.95 20 5.5V6.5Z" fill="url(#paint0_linear_4361_334)"/>
<defs>
<linearGradient id="paint0_linear_4361_334" x1="3" y1="12.5" x2="22" y2="12.5" gradientUnits="userSpaceOnUse">
<stop stop-color="#E35205"/>
<stop offset="1" stop-color="#F98E20"/>
</linearGradient>
</defs>
</svg>
