<svg width="24" height="24" viewBox="0 0 24 24" fill="none" xmlns="http://www.w3.org/2000/svg">
<path fill-rule="evenodd" clip-rule="evenodd" d="M21.1681 1H2.83189C1.82283 1 1 1.82283 1 2.83189V14.2996C1 15.3087 1.82283 16.1315 2.83189 16.1315H21.1638C22.1728 16.1315 22.9957 15.3087 22.9957 14.2996V2.83189C23 1.82283 22.1772 1 21.1681 1ZM21.7787 14.3039C21.7787 14.6417 21.5059 14.9146 21.1681 14.9146H2.83189C2.49409 14.9146 2.22126 14.6417 2.22126 14.3039V2.83189C2.22126 2.49409 2.49409 2.22126 2.83189 2.22126H21.1638C21.5016 2.22126 21.7744 2.49409 21.7744 2.83189V14.3039H21.7787ZM5.51693 18.9638C5.32638 18.6866 4.94528 18.6173 4.66811 18.8079L4.00551 19.2626V18.4571C4.00551 18.1193 3.73268 17.8465 3.39488 17.8465C3.05709 17.8465 2.78425 18.1193 2.78425 18.4571V19.2626L2.12165 18.8079C1.84449 18.6173 1.46339 18.6866 1.27283 18.9638C1.08228 19.2409 1.15157 19.622 1.42874 19.8126L2.31654 20.4232L1.42874 21.0339C1.15157 21.2244 1.08228 21.6055 1.27283 21.8827C1.46339 22.1598 1.84449 22.2291 2.12165 22.0386L2.78425 21.5839V22.3894C2.78425 22.7272 3.05709 23 3.39488 23C3.73268 23 4.00551 22.7272 4.00551 22.3894V21.5839L4.66811 22.0386C4.94528 22.2291 5.32638 22.1598 5.51693 21.8827C5.70748 21.6055 5.63819 21.2244 5.36102 21.0339L4.47323 20.4232L5.36102 19.8126C5.63819 19.622 5.70748 19.2409 5.51693 18.9638ZM11.8181 18.9638C11.6276 18.6866 11.2465 18.6173 10.9693 18.8079L10.3067 19.2626V18.4571C10.3067 18.1193 10.0339 17.8465 9.69606 17.8465C9.35827 17.8465 9.08543 18.1193 9.08543 18.4571V19.2626L8.42283 18.8079C8.14567 18.6173 7.76457 18.6866 7.57402 18.9638C7.38346 19.2409 7.45276 19.622 7.72992 19.8126L8.61772 20.4232L7.72992 21.0339C7.45276 21.2244 7.38346 21.6055 7.57402 21.8827C7.76457 22.1598 8.14567 22.2291 8.42283 22.0386L9.08543 21.5839V22.3894C9.08543 22.7272 9.35827 23 9.69606 23C10.0339 23 10.3067 22.7272 10.3067 22.3894V21.5839L10.9693 22.0386C11.2465 22.2291 11.6276 22.1598 11.8181 21.8827C12.0087 21.6055 11.9394 21.2244 11.6622 21.0339L10.7744 20.4232L11.6622 19.8126C11.9394 19.622 12.0087 19.2409 11.8181 18.9638ZM14.7067 20.9213H17.1579C17.4957 20.9213 17.7685 21.1984 17.7685 21.5319C17.7685 21.8697 17.4957 22.1425 17.1579 22.1425H14.7067C14.3689 22.1425 14.0961 21.8697 14.0961 21.5319C14.0961 21.1941 14.3689 20.9213 14.7067 20.9213ZM23 21.5319C23 21.1984 22.7272 20.9213 22.3894 20.9213H19.9382C19.6004 20.9213 19.3276 21.1941 19.3276 21.5319C19.3276 21.8697 19.6004 22.1425 19.9382 22.1425H22.3894C22.7272 22.1425 23 21.8697 23 21.5319ZM5.95866 8.17165H5.04488C4.0315 8.17165 3.21299 7.35315 3.21299 6.33976V5.42598C3.21299 4.41693 4.03583 3.59409 5.04488 3.59409H5.95866C6.96772 3.59409 7.79055 4.41693 7.79055 5.42598V6.33976C7.79055 7.34882 6.96772 8.17165 5.95866 8.17165ZM5.04488 4.81535C4.70709 4.81535 4.43425 5.08819 4.43425 5.42598V6.33976C4.43425 6.67756 4.70709 6.95039 5.04488 6.95039H5.95866C6.29646 6.95039 6.56929 6.67756 6.56929 6.33976V5.42598C6.56929 5.08819 6.29646 4.81535 5.95866 4.81535H5.04488ZM3.82362 10.4547H13.8116C14.1451 10.4547 14.4223 10.7276 14.4223 11.0654C14.4223 11.4031 14.1494 11.676 13.8116 11.676H7.80662H3.82362C3.48583 11.676 3.21299 11.4031 3.21299 11.0654C3.21299 10.7276 3.48583 10.4547 3.82362 10.4547Z" fill="url(#paint0_linear_4361_1366)"/>
<path d="M22.9957 2.83189L22.7457 2.83082V2.83189H22.9957ZM21.7787 14.3039H22.0287V14.0539H21.7787V14.3039ZM21.7744 14.3039H21.5244V14.5539H21.7744V14.3039ZM4.66811 18.8079L4.80957 19.014L4.80974 19.0139L4.66811 18.8079ZM5.51693 18.9638L5.31092 19.1054H5.31092L5.51693 18.9638ZM4.00551 19.2626H3.75551V19.7374L4.14697 19.4687L4.00551 19.2626ZM2.78425 19.2626L2.64279 19.4687L3.03425 19.7374V19.2626H2.78425ZM2.12165 18.8079L1.98002 19.0139L1.98019 19.014L2.12165 18.8079ZM1.27283 18.9638L1.47884 19.1054H1.47885L1.27283 18.9638ZM1.42874 19.8126L1.57042 19.6066L1.57037 19.6066L1.42874 19.8126ZM2.31654 20.4232L2.45821 20.6292L2.75769 20.4232L2.45821 20.2172L2.31654 20.4232ZM1.42874 21.0339L1.57037 21.2399L1.57041 21.2398L1.42874 21.0339ZM1.27283 21.8827L1.47884 21.741H1.47884L1.27283 21.8827ZM2.12165 22.0386L1.98019 21.8325L1.98002 21.8326L2.12165 22.0386ZM2.78425 21.5839H3.03425V21.1091L2.64279 21.3777L2.78425 21.5839ZM4.00551 21.5839L4.14697 21.3777L3.75551 21.1091V21.5839H4.00551ZM4.66811 22.0386L4.80974 21.8326L4.80957 21.8325L4.66811 22.0386ZM5.36102 21.0339L5.21935 21.2398L5.21939 21.2399L5.36102 21.0339ZM4.47323 20.4232L4.33155 20.2172L4.03208 20.4232L4.33155 20.6292L4.47323 20.4232ZM5.36102 19.8126L5.21939 19.6066L5.21935 19.6066L5.36102 19.8126ZM10.9693 18.8079L11.1108 19.014L11.1109 19.0139L10.9693 18.8079ZM11.8181 18.9638L11.6121 19.1054H11.6121L11.8181 18.9638ZM10.3067 19.2626H10.0567V19.7374L10.4482 19.4687L10.3067 19.2626ZM9.08543 19.2626L8.94397 19.4687L9.33543 19.7374V19.2626H9.08543ZM8.42283 18.8079L8.2812 19.0139L8.28137 19.014L8.42283 18.8079ZM7.57402 18.9638L7.78003 19.1054H7.78003L7.57402 18.9638ZM7.72992 19.8126L7.8716 19.6066L7.87155 19.6066L7.72992 19.8126ZM8.61772 20.4232L8.75939 20.6292L9.05887 20.4232L8.75939 20.2172L8.61772 20.4232ZM7.72992 21.0339L7.87155 21.2399L7.8716 21.2398L7.72992 21.0339ZM8.42283 22.0386L8.28137 21.8325L8.2812 21.8326L8.42283 22.0386ZM9.08543 21.5839H9.33543V21.1091L8.94397 21.3777L9.08543 21.5839ZM10.3067 21.5839L10.4482 21.3777L10.0567 21.1091V21.5839H10.3067ZM10.9693 22.0386L11.1109 21.8326L11.1108 21.8325L10.9693 22.0386ZM11.8181 21.8827L11.6121 21.741H11.6121L11.8181 21.8827ZM11.6622 21.0339L11.5205 21.2398L11.5206 21.2399L11.6622 21.0339ZM10.7744 20.4232L10.6327 20.2172L10.3333 20.4232L10.6327 20.6292L10.7744 20.4232ZM11.6622 19.8126L11.5206 19.6066L11.5205 19.6066L11.6622 19.8126ZM2.83189 1.25H21.1681V0.75H2.83189V1.25ZM1.25 2.83189C1.25 1.96091 1.96091 1.25 2.83189 1.25V0.75C1.68476 0.75 0.75 1.68476 0.75 2.83189H1.25ZM1.25 14.2996V2.83189H0.75V14.2996H1.25ZM2.83189 15.8815C1.96091 15.8815 1.25 15.1706 1.25 14.2996H0.75C0.75 15.4467 1.68476 16.3815 2.83189 16.3815V15.8815ZM21.1638 15.8815H2.83189V16.3815H21.1638V15.8815ZM22.7457 14.2996C22.7457 15.1706 22.0348 15.8815 21.1638 15.8815V16.3815C22.3109 16.3815 23.2457 15.4467 23.2457 14.2996H22.7457ZM22.7457 2.83189V14.2996H23.2457V2.83189H22.7457ZM21.1681 1.25C22.0393 1.25 22.7494 1.96088 22.7457 2.83082L23.2457 2.83296C23.2506 1.68479 22.315 0.75 21.1681 0.75V1.25ZM21.1681 15.1646C21.644 15.1646 22.0287 14.7798 22.0287 14.3039H21.5287C21.5287 14.5037 21.3678 14.6646 21.1681 14.6646V15.1646ZM2.83189 15.1646H21.1681V14.6646H2.83189V15.1646ZM1.97126 14.3039C1.97126 14.7798 2.35602 15.1646 2.83189 15.1646V14.6646C2.63217 14.6646 2.47126 14.5037 2.47126 14.3039H1.97126ZM1.97126 2.83189V14.3039H2.47126V2.83189H1.97126ZM2.83189 1.97126C2.35602 1.97126 1.97126 2.35602 1.97126 2.83189H2.47126C2.47126 2.63217 2.63217 2.47126 2.83189 2.47126V1.97126ZM21.1638 1.97126H2.83189V2.47126H21.1638V1.97126ZM22.0244 2.83189C22.0244 2.35602 21.6396 1.97126 21.1638 1.97126V2.47126C21.3635 2.47126 21.5244 2.63217 21.5244 2.83189H22.0244ZM22.0244 14.3039V2.83189H21.5244V14.3039H22.0244ZM21.7787 14.0539H21.7744V14.5539H21.7787V14.0539ZM4.80974 19.0139C4.97392 18.901 5.19913 18.9428 5.31092 19.1054L5.72294 18.8221C5.45363 18.4304 4.91663 18.3336 4.52648 18.6019L4.80974 19.0139ZM4.14697 19.4687L4.80957 19.014L4.52665 18.6017L3.86405 19.0565L4.14697 19.4687ZM3.75551 18.4571V19.2626H4.25551V18.4571H3.75551ZM3.39488 18.0965C3.59461 18.0965 3.75551 18.2574 3.75551 18.4571H4.25551C4.25551 17.9812 3.87075 17.5965 3.39488 17.5965V18.0965ZM3.03425 18.4571C3.03425 18.2574 3.19516 18.0965 3.39488 18.0965V17.5965C2.91902 17.5965 2.53425 17.9812 2.53425 18.4571H3.03425ZM3.03425 19.2626V18.4571H2.53425V19.2626H3.03425ZM1.98019 19.014L2.64279 19.4687L2.92571 19.0565L2.26311 18.6017L1.98019 19.014ZM1.47885 19.1054C1.59064 18.9428 1.81585 18.901 1.98002 19.0139L2.26329 18.6019C1.87313 18.3336 1.33614 18.4304 1.06682 18.8221L1.47885 19.1054ZM1.57037 19.6066C1.40777 19.4948 1.36598 19.2696 1.47884 19.1054L1.06682 18.8221C0.798591 19.2123 0.895383 19.7493 1.28711 20.0186L1.57037 19.6066ZM2.45821 20.2172L1.57042 19.6066L1.28707 20.0186L2.17486 20.6292L2.45821 20.2172ZM1.57041 21.2398L2.45821 20.6292L2.17486 20.2172L1.28707 20.8279L1.57041 21.2398ZM1.47884 21.741C1.36598 21.5769 1.40777 21.3517 1.57037 21.2399L1.28711 20.8278C0.895383 21.0972 0.798591 21.6342 1.06682 22.0243L1.47884 21.741ZM1.98002 21.8326C1.81585 21.9454 1.59064 21.9037 1.47884 21.741L1.06682 22.0243C1.33614 22.416 1.87313 22.5128 2.26329 22.2446L1.98002 21.8326ZM2.64279 21.3777L1.98019 21.8325L2.26311 22.2447L2.92571 21.79L2.64279 21.3777ZM3.03425 22.3894V21.5839H2.53425V22.3894H3.03425ZM3.39488 22.75C3.19516 22.75 3.03425 22.5891 3.03425 22.3894H2.53425C2.53425 22.8652 2.91902 23.25 3.39488 23.25V22.75ZM3.75551 22.3894C3.75551 22.5891 3.59461 22.75 3.39488 22.75V23.25C3.87075 23.25 4.25551 22.8652 4.25551 22.3894H3.75551ZM3.75551 21.5839V22.3894H4.25551V21.5839H3.75551ZM4.80957 21.8325L4.14697 21.3777L3.86405 21.79L4.52665 22.2447L4.80957 21.8325ZM5.31092 21.741C5.19913 21.9037 4.97392 21.9454 4.80974 21.8326L4.52648 22.2446C4.91664 22.5128 5.45363 22.416 5.72294 22.0243L5.31092 21.741ZM5.21939 21.2399C5.382 21.3517 5.42379 21.5769 5.31092 21.741L5.72294 22.0243C5.99117 21.6342 5.89438 21.0972 5.50266 20.8278L5.21939 21.2399ZM4.33155 20.6292L5.21935 21.2398L5.5027 20.8279L4.6149 20.2172L4.33155 20.6292ZM5.21935 19.6066L4.33155 20.2172L4.6149 20.6292L5.5027 20.0186L5.21935 19.6066ZM5.31092 19.1054C5.42379 19.2696 5.382 19.4948 5.21939 19.6066L5.50266 20.0186C5.89438 19.7493 5.99117 19.2123 5.72294 18.8221L5.31092 19.1054ZM11.1109 19.0139C11.2751 18.901 11.5003 18.9428 11.6121 19.1054L12.0241 18.8221C11.7548 18.4304 11.2178 18.3336 10.8277 18.6019L11.1109 19.0139ZM10.4482 19.4687L11.1108 19.014L10.8278 18.6017L10.1652 19.0565L10.4482 19.4687ZM10.0567 18.4571V19.2626H10.5567V18.4571H10.0567ZM9.69606 18.0965C9.89579 18.0965 10.0567 18.2574 10.0567 18.4571H10.5567C10.5567 17.9812 10.1719 17.5965 9.69606 17.5965V18.0965ZM9.33543 18.4571C9.33543 18.2574 9.49634 18.0965 9.69606 18.0965V17.5965C9.2202 17.5965 8.83543 17.9812 8.83543 18.4571H9.33543ZM9.33543 19.2626V18.4571H8.83543V19.2626H9.33543ZM8.28137 19.014L8.94397 19.4687L9.22689 19.0565L8.56429 18.6017L8.28137 19.014ZM7.78003 19.1054C7.89182 18.9428 8.11703 18.901 8.2812 19.0139L8.56447 18.6019C8.17431 18.3336 7.63732 18.4304 7.368 18.8221L7.78003 19.1054ZM7.87155 19.6066C7.70895 19.4948 7.66716 19.2696 7.78003 19.1054L7.36801 18.8221C7.09977 19.2123 7.19656 19.7493 7.58829 20.0186L7.87155 19.6066ZM8.75939 20.2172L7.8716 19.6066L7.58825 20.0186L8.47604 20.6292L8.75939 20.2172ZM7.8716 21.2398L8.75939 20.6292L8.47604 20.2172L7.58825 20.8279L7.8716 21.2398ZM7.78003 21.741C7.66716 21.5769 7.70895 21.3517 7.87155 21.2399L7.58829 20.8278C7.19656 21.0972 7.09977 21.6342 7.36801 22.0243L7.78003 21.741ZM8.2812 21.8326C8.11703 21.9454 7.89182 21.9037 7.78003 21.741L7.36801 22.0243C7.63732 22.416 8.17431 22.5128 8.56447 22.2446L8.2812 21.8326ZM8.94397 21.3777L8.28137 21.8325L8.56429 22.2447L9.22689 21.79L8.94397 21.3777ZM9.33543 22.3894V21.5839H8.83543V22.3894H9.33543ZM9.69606 22.75C9.49634 22.75 9.33543 22.5891 9.33543 22.3894H8.83543C8.83543 22.8652 9.2202 23.25 9.69606 23.25V22.75ZM10.0567 22.3894C10.0567 22.5891 9.89579 22.75 9.69606 22.75V23.25C10.1719 23.25 10.5567 22.8652 10.5567 22.3894H10.0567ZM10.0567 21.5839V22.3894H10.5567V21.5839H10.0567ZM11.1108 21.8325L10.4482 21.3777L10.1652 21.79L10.8278 22.2447L11.1108 21.8325ZM11.6121 21.741C11.5003 21.9037 11.2751 21.9454 11.1109 21.8326L10.8277 22.2446C11.2178 22.5128 11.7548 22.416 12.0241 22.0243L11.6121 21.741ZM11.5206 21.2399C11.6832 21.3517 11.725 21.5769 11.6121 21.741L12.0241 22.0243C12.2924 21.6342 12.1956 21.0972 11.8038 20.8278L11.5206 21.2399ZM10.6327 20.6292L11.5205 21.2398L11.8039 20.8279L10.9161 20.2172L10.6327 20.6292ZM11.5205 19.6066L10.6327 20.2172L10.9161 20.6292L11.8039 20.0186L11.5205 19.6066ZM11.6121 19.1054C11.725 19.2696 11.6832 19.4948 11.5206 19.6066L11.8038 20.0186C12.1956 19.7493 12.2924 19.2123 12.0241 18.8221L11.6121 19.1054ZM17.1579 20.6713H14.7067V21.1713H17.1579V20.6713ZM18.0185 21.5319C18.0185 21.0615 17.6349 20.6713 17.1579 20.6713V21.1713C17.3564 21.1713 17.5185 21.3353 17.5185 21.5319H18.0185ZM17.1579 22.3925C17.6337 22.3925 18.0185 22.0078 18.0185 21.5319H17.5185C17.5185 21.7316 17.3576 21.8925 17.1579 21.8925V22.3925ZM14.7067 22.3925H17.1579V21.8925H14.7067V22.3925ZM13.8461 21.5319C13.8461 22.0078 14.2308 22.3925 14.7067 22.3925V21.8925C14.507 21.8925 14.3461 21.7316 14.3461 21.5319H13.8461ZM14.7067 20.6713C14.2308 20.6713 13.8461 21.056 13.8461 21.5319H14.3461C14.3461 21.3322 14.507 21.1713 14.7067 21.1713V20.6713ZM22.3894 21.1713C22.5879 21.1713 22.75 21.3353 22.75 21.5319H23.25C23.25 21.0615 22.8664 20.6713 22.3894 20.6713V21.1713ZM19.9382 21.1713H22.3894V20.6713H19.9382V21.1713ZM19.5776 21.5319C19.5776 21.3322 19.7385 21.1713 19.9382 21.1713V20.6713C19.4623 20.6713 19.0776 21.056 19.0776 21.5319H19.5776ZM19.9382 21.8925C19.7385 21.8925 19.5776 21.7316 19.5776 21.5319H19.0776C19.0776 22.0078 19.4623 22.3925 19.9382 22.3925V21.8925ZM22.3894 21.8925H19.9382V22.3925H22.3894V21.8925ZM22.75 21.5319C22.75 21.7316 22.5891 21.8925 22.3894 21.8925V22.3925C22.8652 22.3925 23.25 22.0078 23.25 21.5319H22.75ZM5.04488 8.42165H5.95866V7.92165H5.04488V8.42165ZM2.96299 6.33976C2.96299 7.49122 3.89342 8.42165 5.04488 8.42165V7.92165C4.16957 7.92165 3.46299 7.21508 3.46299 6.33976H2.96299ZM2.96299 5.42598V6.33976H3.46299V5.42598H2.96299ZM5.04488 3.34409C3.89776 3.34409 2.96299 4.27886 2.96299 5.42598H3.46299C3.46299 4.555 4.1739 3.84409 5.04488 3.84409V3.34409ZM5.95866 3.34409H5.04488V3.84409H5.95866V3.34409ZM8.04055 5.42598C8.04055 4.27886 7.10579 3.34409 5.95866 3.34409V3.84409C6.82965 3.84409 7.54055 4.555 7.54055 5.42598H8.04055ZM8.04055 6.33976V5.42598H7.54055V6.33976H8.04055ZM5.95866 8.42165C7.10579 8.42165 8.04055 7.48689 8.04055 6.33976H7.54055C7.54055 7.21075 6.82965 7.92165 5.95866 7.92165V8.42165ZM4.68425 5.42598C4.68425 5.22626 4.84516 5.06535 5.04488 5.06535V4.56535C4.56902 4.56535 4.18425 4.95012 4.18425 5.42598H4.68425ZM4.68425 6.33976V5.42598H4.18425V6.33976H4.68425ZM5.04488 6.70039C4.84516 6.70039 4.68425 6.53949 4.68425 6.33976H4.18425C4.18425 6.81563 4.56902 7.20039 5.04488 7.20039V6.70039ZM5.95866 6.70039H5.04488V7.20039H5.95866V6.70039ZM6.31929 6.33976C6.31929 6.53949 6.15839 6.70039 5.95866 6.70039V7.20039C6.43453 7.20039 6.81929 6.81563 6.81929 6.33976H6.31929ZM6.31929 5.42598V6.33976H6.81929V5.42598H6.31929ZM5.95866 5.06535C6.15839 5.06535 6.31929 5.22626 6.31929 5.42598H6.81929C6.81929 4.95012 6.43453 4.56535 5.95866 4.56535V5.06535ZM5.04488 5.06535H5.95866V4.56535H5.04488V5.06535ZM13.8116 10.2047H3.82362V10.7047H13.8116V10.2047ZM14.6723 11.0654C14.6723 10.5883 14.282 10.2047 13.8116 10.2047V10.7047C14.0082 10.7047 14.1723 10.8668 14.1723 11.0654H14.6723ZM13.8116 11.926C14.2875 11.926 14.6723 11.5412 14.6723 11.0654H14.1723C14.1723 11.2651 14.0114 11.426 13.8116 11.426V11.926ZM7.80662 11.926H13.8116V11.426H7.80662V11.926ZM3.82362 11.926H7.80662V11.426H3.82362V11.926ZM2.96299 11.0654C2.96299 11.5412 3.34776 11.926 3.82362 11.926V11.426C3.6239 11.426 3.46299 11.2651 3.46299 11.0654H2.96299ZM3.82362 10.2047C3.34776 10.2047 2.96299 10.5895 2.96299 11.0654H3.46299C3.46299 10.8656 3.6239 10.7047 3.82362 10.7047V10.2047Z" fill="url(#paint1_linear_4361_1366)"/>
<defs>
<linearGradient id="paint0_linear_4361_1366" x1="1" y1="12" x2="23" y2="12" gradientUnits="userSpaceOnUse">
<stop stop-color="#E35205"/>
<stop offset="1" stop-color="#F98E20"/>
</linearGradient>
<linearGradient id="paint1_linear_4361_1366" x1="1" y1="12" x2="23" y2="12" gradientUnits="userSpaceOnUse">
<stop stop-color="#E35205"/>
<stop offset="1" stop-color="#F98E20"/>
</linearGradient>
</defs>
</svg>
