<svg width="24" height="24" viewBox="0 0 24 24" fill="none" xmlns="http://www.w3.org/2000/svg">
<path fill-rule="evenodd" clip-rule="evenodd" d="M15.4996 16.5V3.50002C15.4996 2.94802 15.9466 2.50002 16.4996 2.50002C17.0526 2.50002 17.4996 2.94802 17.4996 3.50002V16.582L18.7096 15.024C19.0486 14.588 19.6776 14.509 20.1126 14.848C20.5496 15.187 20.6286 15.816 20.2896 16.251L17.2896 20.113C17.0986 20.36 16.8036 20.502 16.4906 20.5C16.1796 20.498 15.8866 20.35 15.6996 20.1L12.6996 16.1C12.5646 15.92 12.4996 15.709 12.4996 15.501C12.4996 15.197 12.6376 14.896 12.8996 14.7C13.3416 14.369 13.9686 14.458 14.2996 14.9L15.4996 16.5ZM8.49962 6.50002L8.49962 19.5C8.49962 20.052 8.05262 20.5 7.49962 20.5C6.94662 20.5 6.49962 20.052 6.49962 19.5L6.49962 6.41802L5.28962 7.97602C4.95062 8.41202 4.32162 8.49102 3.88662 8.15202C3.63262 7.95502 3.49961 7.66002 3.49961 7.36202C3.49961 7.14702 3.56762 6.93102 3.70962 6.74902L6.70962 2.88702C6.90062 2.64002 7.19562 2.49802 7.50862 2.50002C7.81962 2.50202 8.11262 2.65002 8.29962 2.90002L11.2996 6.90002C11.6306 7.34302 11.5416 7.96902 11.0996 8.30002C10.6576 8.63102 10.0306 8.54202 9.69962 8.10002L8.49962 6.50002Z" fill="url(#paint0_linear_4361_1327)"/>
<mask id="mask0_4361_1327" style="mask-type:luminance" maskUnits="userSpaceOnUse" x="3" y="2" width="18" height="19">
<path fill-rule="evenodd" clip-rule="evenodd" d="M15.4996 16.5V3.50002C15.4996 2.94802 15.9466 2.50002 16.4996 2.50002C17.0526 2.50002 17.4996 2.94802 17.4996 3.50002V16.582L18.7096 15.024C19.0486 14.588 19.6776 14.509 20.1126 14.848C20.5496 15.187 20.6286 15.816 20.2896 16.251L17.2896 20.113C17.0986 20.36 16.8036 20.502 16.4906 20.5C16.1796 20.498 15.8866 20.35 15.6996 20.1L12.6996 16.1C12.5646 15.92 12.4996 15.709 12.4996 15.501C12.4996 15.197 12.6376 14.896 12.8996 14.7C13.3416 14.369 13.9686 14.458 14.2996 14.9L15.4996 16.5ZM8.49962 6.50002L8.49962 19.5C8.49962 20.052 8.05262 20.5 7.49962 20.5C6.94662 20.5 6.49962 20.052 6.49962 19.5L6.49962 6.41802L5.28962 7.97602C4.95062 8.41202 4.32162 8.49102 3.88662 8.15202C3.63262 7.95502 3.49961 7.66002 3.49961 7.36202C3.49961 7.14702 3.56762 6.93102 3.70962 6.74902L6.70962 2.88702C6.90062 2.64002 7.19562 2.49802 7.50862 2.50002C7.81962 2.50202 8.11262 2.65002 8.29962 2.90002L11.2996 6.90002C11.6306 7.34302 11.5416 7.96902 11.0996 8.30002C10.6576 8.63102 10.0306 8.54202 9.69962 8.10002L8.49962 6.50002Z" fill="white"/>
</mask>
<g mask="url(#mask0_4361_1327)">
</g>
<defs>
<linearGradient id="paint0_linear_4361_1327" x1="11.9998" y1="2.5" x2="11.9998" y2="20.5" gradientUnits="userSpaceOnUse">
<stop stop-color="#E35205"/>
<stop offset="1" stop-color="#F98E20"/>
</linearGradient>
</defs>
</svg>
