<svg width="24" height="25" viewBox="0 0 24 25" fill="none" xmlns="http://www.w3.org/2000/svg">
<path fill-rule="evenodd" clip-rule="evenodd" d="M19.5 6.83333V6C19.5 4.62122 18.3788 3.5 17 3.5H4.5C3.12122 3.5 2 4.62122 2 6V19.3333C2 20.7121 3.12122 21.8333 4.5 21.8333H19.5C20.8788 21.8333 22 20.7121 22 19.3333V9.33333C22 7.95455 20.8788 6.83333 19.5 6.83333ZM4.5 5.16667H17C17.4596 5.16667 17.8333 5.54041 17.8333 6V6.83333H4.5C4.04041 6.83333 3.66667 6.45959 3.66667 6C3.66667 5.54041 4.04041 5.16667 4.5 5.16667ZM4.5 20.1667H19.5C19.9596 20.1667 20.3333 19.7929 20.3333 19.3333V17.25H15.75C14.1417 17.25 12.8333 15.9412 12.8333 14.3333C12.8333 12.7255 14.1417 11.4167 15.75 11.4167H20.3333V9.33333C20.3333 8.87374 19.9596 8.5 19.5 8.5H4.5C4.20784 8.5 3.92749 8.44954 3.66667 8.35718V19.3333C3.66667 19.7929 4.04041 20.1667 4.5 20.1667ZM20.3333 15.5833H18.3833C18.5666 15.1962 18.6667 14.7726 18.6667 14.3333C18.6667 13.8857 18.5621 13.463 18.3812 13.0833H20.3333V15.5833ZM15.75 13.0833C15.0609 13.0833 14.5 13.6442 14.5 14.3333C14.5 15.0224 15.0609 15.5833 15.75 15.5833C16.0837 15.5833 16.3996 15.4529 16.6387 15.2159C16.8696 14.983 17 14.667 17 14.3333C17 13.6442 16.4391 13.0833 15.75 13.0833Z" fill="url(#paint0_linear_4361_1270)"/>
<defs>
<linearGradient id="paint0_linear_4361_1270" x1="2" y1="12.6667" x2="22" y2="12.6667" gradientUnits="userSpaceOnUse">
<stop stop-color="#E35205"/>
<stop offset="1" stop-color="#F98E20"/>
</linearGradient>
</defs>
</svg>
